<svg width="157" height="255" viewBox="0 0 157 255" fill="none" xmlns="http://www.w3.org/2000/svg">
<path d="M100.741 232.115C100.58 244.306 89.4129 254.045 75.798 253.866C62.1831 253.687 51.2755 243.657 51.4358 231.466C51.5962 219.275 62.7637 209.538 76.3786 209.717C89.9935 209.896 100.901 219.924 100.741 232.115Z" fill="#1F1F1F"/>
<path d="M150.215 97.7069L77.8587 97.2105L5.51838 95.804C22.1339 126.914 34.8892 157.604 33.262 187.58L76.3164 188.147L77.0091 188.156L120.065 188.722C119.225 158.713 132.787 128.369 150.215 97.7069Z" fill="white"/>
<path d="M150.214 97.7068L150.217 97.2442L77.863 96.7478L77.8586 97.2103L77.8683 96.7479L5.52611 95.3414L5.13766 95.5657L5.12984 96.0281C21.012 125.761 33.3288 155.07 32.9494 183.654C32.9322 184.956 32.8885 186.256 32.8182 187.554L32.9362 187.896L33.2559 188.043L76.3102 188.609L77.003 188.618L120.059 189.184L120.381 189.046L120.508 188.707C120.471 187.408 120.464 186.107 120.481 184.807C120.851 156.221 133.937 127.247 150.595 97.9412L150.601 97.4787L150.217 97.2442L150.214 97.7068L149.832 97.4705C133.153 126.822 119.976 155.918 119.593 184.795C119.575 186.108 119.585 187.422 119.621 188.736L120.065 188.722L120.071 188.259L77.0151 187.693L76.3224 187.684L33.268 187.118L33.262 187.58L33.7039 187.606C33.7763 186.294 33.8202 184.981 33.8375 183.665C34.2119 154.79 21.8078 125.357 5.90494 95.5776L5.51829 95.8038L5.50865 96.2663L77.8508 97.6728L77.8561 97.6729L150.21 98.1693L150.214 97.7068Z" fill="#1F1F1F"/>
<path d="M155.267 76.179C154.84 108.715 135.885 136.757 102.966 136.555C92.4106 136.49 81.8719 134.612 71.341 135.386C66.9078 135.711 62.5111 136.504 58.0691 136.682C23.9023 138.052 0.567873 109.234 1.02927 74.1505C1.56332 33.5427 36.5246 1.07737 79.1153 1.6375C121.708 2.19764 155.801 35.5712 155.267 76.179Z" fill="#FFC958"/>
<path d="M60.7007 194.852C59.123 169.061 56.2754 143.246 52.5815 117.749C51.9024 113.057 51.2215 108.365 50.5424 103.673C50.2355 101.612 50.4415 99.3143 49.687 97.1174C49.4302 96.3776 48.9576 95.709 48.3815 95.2056C47.8054 94.7059 47.1188 94.3601 46.3995 94.3469C45.5631 94.3211 44.73 94.8542 44.2825 95.9177C44.0316 96.488 43.9221 97.1193 43.9135 97.7742C43.8992 100.747 45.8208 104.308 47.5822 105.867C50.008 107.97 53.1502 108.818 56.1616 109.074C57.1944 109.161 58.3924 109.247 59.6234 109.264C61.5719 109.287 63.6008 109.146 65.2328 108.525C68.4789 107.28 71.2329 104.554 72.5682 101.226C72.9228 100.335 73.3057 98.5086 73.333 96.7013C73.3452 95.6412 73.2381 94.5963 72.8691 93.7496C72.516 92.9049 71.7857 92.2403 70.7695 92.2418C70.4959 92.2382 70.204 92.2769 69.8956 92.3598C68.7957 92.6451 68.0102 93.3397 67.5421 94.2198C67.0704 95.0998 66.8878 96.1502 66.8718 97.2324C66.8477 99.4691 67.5339 101.867 68.2485 103.323C70.0274 106.923 73.4968 109.777 77.553 109.886L77.6613 109.889C81.825 109.937 85.4938 107.08 87.3807 103.414C87.9517 102.28 88.6718 99.5304 88.7121 97.0127C88.7255 95.8528 88.5961 94.7464 88.1742 93.8657C87.7666 92.9833 86.9597 92.3363 85.8689 92.3367C85.7001 92.3345 85.5277 92.3452 85.3461 92.3705C84.1645 92.5252 83.2984 93.1318 82.7864 93.9688C82.2691 94.8057 82.0762 95.83 82.0606 96.8826C82.0395 98.7566 82.5818 100.745 83.1811 102.05C84.8118 105.574 88.0463 108.329 91.7725 109.081C92.6336 109.256 93.4691 109.344 94.2808 109.355C99.5082 109.431 103.568 106.171 105.854 101.096C106.24 100.242 106.586 99.3163 106.663 98.3108L106.678 97.9927C106.69 97.077 106.45 96.1228 105.84 95.3895C105.266 94.7048 104.422 94.307 103.555 94.2919L103.271 94.3029C102.058 94.4202 101.115 95.344 100.385 96.3891C99.6553 97.4452 99.1292 98.6743 98.8312 99.5862C98.0886 101.878 98.0201 104.255 97.4427 106.418C96.0758 111.603 94.8206 116.817 93.6821 122.058C88.5324 145.798 85.7576 170.092 85.4377 194.42C85.4213 195.665 85.4121 196.91 85.4082 198.156C85.4084 198.411 85.6064 198.617 85.8515 198.618C86.0967 198.618 86.2966 198.411 86.2964 198.156C86.3003 196.915 86.3095 195.673 86.3258 194.432C86.6449 170.168 89.4117 145.937 94.5499 122.262C95.6829 117.033 96.9363 111.832 98.2994 106.662C98.9053 104.353 98.9789 101.997 99.6711 99.8822C99.9433 99.0476 100.449 97.8775 101.106 96.9296C101.764 95.9706 102.567 95.2817 103.346 95.2253L103.543 95.2169C104.151 95.223 104.774 95.5198 105.169 95.9968C105.598 96.5076 105.8 97.2392 105.79 97.981L105.777 98.2381C105.717 99.0662 105.418 99.8912 105.05 100.702C102.846 105.543 99.1387 108.486 94.293 108.43C93.5363 108.42 92.754 108.338 91.9407 108.173C88.5227 107.49 85.4868 104.915 83.9824 101.648C83.4399 100.481 82.9231 98.5684 82.9487 96.8943C82.9593 95.9508 83.1429 95.0929 83.5313 94.4708C83.9232 93.8505 84.4955 93.4251 85.462 93.2861L85.8567 93.2617C86.6363 93.2867 87.0476 93.6252 87.3818 94.2827C87.7018 94.9401 87.8416 95.9263 87.8239 97.001C87.8023 99.3228 87.066 102.085 86.5977 102.978C84.8437 106.394 81.4177 109.021 77.6735 108.964L77.5759 108.961C73.928 108.876 70.6935 106.255 69.0375 102.9C68.392 101.597 67.7298 99.2679 67.76 97.2441C67.7728 96.2637 67.9464 95.3593 68.3178 94.6703C68.6928 93.9833 69.2376 93.4927 70.1148 93.2563C70.359 93.1911 70.5726 93.1643 70.7573 93.1667C71.4179 93.1902 71.762 93.5 72.061 94.1349C72.3422 94.7695 72.4596 95.7091 72.4449 96.6896C72.4266 98.3527 72.0385 100.163 71.7485 100.869C70.5196 103.947 67.9313 106.509 64.928 107.657C63.4835 108.212 61.5308 108.365 59.6355 108.339C58.4366 108.323 57.258 108.239 56.2341 108.151C53.3273 107.908 50.3678 107.084 48.1511 105.157C46.6244 103.858 44.7434 100.322 44.8016 97.7859C44.8089 97.229 44.9025 96.727 45.0894 96.3002C45.4642 95.4874 45.8898 95.2801 46.3873 95.2719C46.8243 95.2739 47.3506 95.5122 47.8108 95.9142C48.271 96.3143 48.6581 96.8708 48.8515 97.4321C49.5313 99.3671 49.3492 101.598 49.6629 103.813C50.342 108.505 51.0229 113.197 51.7021 117.889C55.3945 143.364 58.2389 169.153 59.8135 194.91C59.8296 195.166 60.0403 195.359 60.2857 195.342C60.531 195.327 60.7151 195.105 60.7007 194.852Z" fill="#1F1F1F"/>
<path d="M52.8506 116.507C52.7495 115.82 52.6272 114.044 52.4446 111.854C52.1682 108.555 51.7469 104.252 50.9515 100.703C50.5503 98.9275 50.0649 97.3391 49.4059 96.1093C49.0729 95.4943 48.6962 94.9639 48.2201 94.5543C47.7511 94.1466 47.1507 93.8686 46.5023 93.8638C46.2785 93.8608 46.0526 93.8875 45.8298 93.9437C45.0029 94.1419 44.3298 94.6604 43.9498 95.3233C43.5645 95.9843 43.4375 96.7283 43.426 97.4646C43.417 99.633 44.36 101.958 44.9805 103.134C45.9691 104.964 47.3208 106.329 48.8802 107.306C50.4414 108.285 52.2029 108.889 54.0527 109.261C55.5712 109.568 57.1659 109.753 58.7698 109.774C61.7113 109.811 64.6884 109.305 67.2573 107.947C69.8245 106.595 71.9717 104.345 73.1039 101.06C73.3903 100.225 73.5179 99.1611 73.5367 98.0086C73.5527 96.6507 73.4049 95.2001 73.0105 93.9848C72.8088 93.379 72.5496 92.8223 72.1542 92.362C71.7712 91.9036 71.1807 91.5443 70.5092 91.541C69.9692 91.5339 69.4461 91.7343 68.9513 92.0682C68.453 92.4058 67.9653 92.8842 67.4487 93.525C66.302 94.9438 65.7567 96.5556 65.7393 98.1484C65.7135 101.19 67.4453 104.055 69.8741 106.2C72.3171 108.341 75.517 109.8 78.7106 109.848C80.7888 109.879 82.8788 109.279 84.6405 107.839C86.404 106.4 87.8086 104.154 88.6369 101.014C88.8033 100.382 88.8772 99.6258 88.8899 98.7915C88.9053 97.3541 88.728 95.7087 88.2914 94.3227C88.0678 93.6296 87.7848 92.9949 87.3653 92.4713C86.9564 91.9553 86.3313 91.5289 85.5852 91.5228C85.0115 91.5153 84.4542 91.7429 83.9394 92.1229C83.4209 92.5046 82.9164 93.0456 82.3845 93.7732C81.5849 94.8673 81.2149 96.115 81.2023 97.349C81.1855 100.107 82.73 102.757 84.6275 104.908C86.5499 107.057 88.8306 108.706 90.7238 109.297C91.8439 109.638 92.9963 109.814 94.1455 109.829C96.737 109.863 99.3198 109.079 101.481 107.496C101.955 107.143 102.479 106.588 103.086 105.854C103.983 104.759 105.003 103.298 105.822 101.78C106.634 100.257 107.273 98.7131 107.304 97.2648C107.322 96.4861 107.109 95.6544 106.509 95.06C105.909 94.4656 105.065 94.2084 104.067 94.1953L103.601 94.2058C102.176 94.2925 101.055 95.1751 100.223 96.1818C99.3854 97.2014 98.7887 98.3999 98.4201 99.409C96.5467 104.613 95.8429 110.715 94.6162 115.913C94.5013 116.409 94.7915 116.911 95.2695 117.032C95.7458 117.153 96.2259 116.848 96.3426 116.352C97.5944 111.001 98.3081 104.958 100.083 100.058C100.382 99.2257 100.913 98.1799 101.57 97.3874C102.232 96.582 102.978 96.0849 103.694 96.0536L104.043 96.0452C104.782 96.0568 105.127 96.2408 105.28 96.3964C105.429 96.55 105.529 96.7734 105.528 97.2415C105.526 97.8021 105.311 98.6263 104.933 99.5113C104.372 100.842 103.473 102.321 102.594 103.536C102.154 104.145 101.719 104.689 101.34 105.118C100.965 105.545 100.629 105.864 100.46 105.984C98.6215 107.331 96.4043 108.008 94.1698 107.979C93.1804 107.966 92.1859 107.814 91.2233 107.52C89.8394 107.113 87.6474 105.599 85.932 103.652C84.1917 101.709 82.935 99.333 82.9785 97.3723C82.9937 96.4881 83.2317 95.6771 83.7999 94.889C84.2541 94.264 84.6538 93.8585 84.9605 93.635C85.2709 93.4078 85.4632 93.3714 85.5609 93.3727C85.6781 93.378 85.7913 93.4128 86.0065 93.6654C86.3161 94.034 86.6447 94.8505 86.8366 95.7985C87.0355 96.7485 87.126 97.8302 87.1137 98.7681C87.106 99.4896 87.0301 100.134 86.9254 100.525C86.1684 103.376 84.9573 105.23 83.5457 106.383C82.1325 107.534 80.4846 108.017 78.7349 107.998C76.0598 107.97 73.1756 106.685 71.0207 104.786C68.8534 102.887 67.4719 100.412 67.5156 98.1718C67.5347 96.9879 67.9086 95.8401 68.8099 94.7122C69.2452 94.1684 69.6266 93.8163 69.917 93.6203C70.2091 93.4225 70.3925 93.3898 70.4849 93.391C70.5914 93.3979 70.664 93.4155 70.8339 93.6009C71.079 93.8706 71.3618 94.5237 71.5253 95.3326C71.6958 96.1397 71.7739 97.0936 71.7604 97.9853C71.7508 98.988 71.6141 99.9279 71.4351 100.431C70.442 103.271 68.6804 105.111 66.453 106.297C64.2292 107.478 61.5242 107.96 58.7941 107.924C57.3074 107.905 55.8139 107.732 54.3911 107.445C52.6865 107.102 51.1268 106.554 49.8 105.721C48.4715 104.884 47.367 103.77 46.5274 102.225C46.0224 101.318 45.1623 99.0361 45.2022 97.488C45.2074 96.9626 45.3087 96.5476 45.4649 96.2869C45.6282 96.0282 45.8081 95.8603 46.2432 95.7421L46.478 95.7137C46.7302 95.7207 46.9846 95.8295 47.3364 96.232C47.9437 96.9245 48.5634 98.4369 49.0256 100.304C49.7367 103.111 50.1848 106.718 50.4828 109.862C50.7859 113.022 50.9341 115.67 51.0935 116.786C51.1668 117.29 51.6188 117.638 52.1048 117.561C52.5891 117.485 52.924 117.012 52.8506 116.507Z" fill="#1F1F1F"/>
<path d="M89.3433 237.159L62.6961 236.808C47.3618 236.607 35.1019 223.499 35.3119 207.529L35.5231 191.466L117.699 192.547L117.488 208.61C117.278 224.58 104.678 237.361 89.3433 237.159Z" fill="#1F1F1F"/>
<path d="M89.3433 237.16L62.6961 236.81C47.3618 236.608 35.1019 223.497 35.3119 207.529L35.5232 191.466L117.699 192.546L117.488 208.609C117.278 224.578 104.678 237.362 89.3433 237.16Z" fill="#4884CD"/>
<path d="M34.7507 200.172L118.092 201.268C118.337 201.271 118.539 201.067 118.542 200.812C118.545 200.556 118.349 200.346 118.104 200.343L34.7629 199.247C34.5177 199.244 34.3161 199.448 34.3127 199.704C34.3094 199.959 34.5056 200.169 34.7507 200.172Z" fill="#1F1F1F"/>
<path d="M34.6277 209.585L117.969 210.681C118.214 210.684 118.416 210.479 118.419 210.224C118.422 209.969 118.226 209.759 117.981 209.756L34.6398 208.66C34.3947 208.657 34.193 208.861 34.1897 209.116C34.1863 209.372 34.3825 209.581 34.6277 209.585Z" fill="#1F1F1F"/>
<path d="M34.5027 218.997L117.844 220.093C118.089 220.096 118.291 219.891 118.294 219.636C118.297 219.381 118.101 219.171 117.856 219.168L34.5148 218.072C34.2697 218.069 34.068 218.273 34.0647 218.528C34.0613 218.784 34.2575 218.994 34.5027 218.997Z" fill="#1F1F1F"/>
<path d="M34.3796 228.409L117.721 229.505C117.966 229.508 118.168 229.304 118.171 229.048C118.174 228.793 117.978 228.583 117.733 228.58L34.3918 227.484C34.1467 227.481 33.945 227.685 33.9416 227.941C33.9383 228.196 34.1345 228.406 34.3796 228.409Z" fill="#1F1F1F"/>
<path d="M124.327 193.466L28.875 192.211L28.9518 186.369L124.404 187.624L124.327 193.466Z" fill="#1F1F1F"/>
<path d="M35.4383 82.7333C36.9641 85.044 38.6406 87.2475 40.4521 89.3195Z" fill="white"/>
<path d="M35.0734 82.9969C36.6098 85.3244 38.2986 87.5428 40.124 89.6317C40.2903 89.8208 40.5708 89.8337 40.7525 89.6622C40.9324 89.4906 40.9469 89.1985 40.7824 89.0094C38.9831 86.9524 37.3189 84.7657 35.8052 82.4718C35.6658 82.2609 35.3894 82.2092 35.1868 82.3527C34.9859 82.498 34.9341 82.786 35.0734 82.9969Z" fill="#1F1F1F"/>
<path d="M52.2988 71.4357C52.7363 75.1771 53.1774 78.9204 53.6168 82.6619Z" fill="white"/>
<path d="M51.8587 71.4925C52.298 75.2339 52.7373 78.9772 53.1767 82.7186C53.2071 82.9725 53.4285 83.153 53.6723 83.1211C53.9161 83.091 54.0897 82.8583 54.0593 82.6062C53.62 78.863 53.1789 75.1215 52.7413 71.3782C52.7109 71.1244 52.4893 70.9457 52.2456 70.9758C52.0035 71.0078 51.83 71.2386 51.8587 71.4925Z" fill="#1F1F1F"/>
<path d="M86.8242 84.0195C88.1764 79.68 89.5286 75.3386 90.8825 70.9991Z" fill="white"/>
<path d="M87.2466 84.1601C88.5988 79.8206 89.951 75.481 91.305 71.1415C91.3792 70.8983 91.2529 70.6375 91.0194 70.5586C90.786 70.4797 90.5355 70.6133 90.4595 70.8565C89.1073 75.1961 87.7533 79.5375 86.4012 83.877C86.3269 84.1203 86.4549 84.381 86.6866 84.458C86.9201 84.537 87.1706 84.4034 87.2466 84.1601Z" fill="#1F1F1F"/>
<path d="M94.9131 83.5063C96.7494 80.3148 98.5857 77.1232 100.42 73.9297Z" fill="white"/>
<path d="M95.2942 83.7442C97.1305 80.5508 98.9668 77.3592 100.801 74.1676C100.927 73.9472 100.858 73.6632 100.648 73.5328C100.438 73.4024 100.166 73.4728 100.038 73.6931C98.2056 76.8848 96.3692 80.0763 94.5329 83.2679C94.4075 83.4883 94.4748 83.7723 94.6863 83.9027C94.896 84.035 95.1688 83.9627 95.2942 83.7442Z" fill="#1F1F1F"/>
<path d="M105.256 86.9951C106.685 85.4708 108.114 83.9465 109.541 82.424Z" fill="white"/>
<path d="M105.573 87.3172C107.001 85.7929 108.43 84.2686 109.857 82.7461C110.029 82.5633 110.025 82.2691 109.85 82.091C109.675 81.9129 109.394 81.9167 109.223 82.0994C107.796 83.6238 106.367 85.1481 104.938 86.6724C104.767 86.8552 104.77 87.1476 104.945 87.3256C105.121 87.5037 105.401 87.5 105.573 87.3172Z" fill="#1F1F1F"/>
<path d="M112.632 100.277C115.589 99.9048 118.507 99.1938 121.315 98.1575Z" fill="white"/>
<path d="M112.684 100.734C115.673 100.361 118.623 99.6413 121.461 98.5925C121.693 98.5068 121.814 98.2438 121.732 98.0022C121.652 97.7624 121.398 97.6351 121.166 97.7208C118.388 98.7464 115.504 99.4504 112.578 99.8171C112.335 99.8472 112.161 100.078 112.19 100.332C112.218 100.584 112.44 100.766 112.684 100.734Z" fill="#1F1F1F"/>
<path d="M73.4022 72.0183C73.3763 73.9903 73.3504 75.9605 73.3244 77.9325C73.3211 78.1878 73.5173 78.3976 73.7624 78.4009C74.0075 78.4041 74.2092 78.1995 74.2126 77.9442C74.2385 75.9722 74.2644 74.002 74.2903 72.03C74.2937 71.7747 74.0975 71.5649 73.8524 71.5617C73.6072 71.5585 73.4056 71.763 73.4022 72.0183Z" fill="#1F1F1F"/>
<path d="M59.719 76.1982C59.8039 77.4449 59.8871 78.6915 59.972 79.9363Z" fill="white"/>
<path d="M59.2771 76.2326C59.3602 77.4789 59.4451 78.7252 59.53 79.9697C59.5462 80.2253 59.7586 80.4168 60.004 80.3997C60.2476 80.3807 60.4335 80.1592 60.4156 79.9036C60.3307 78.6591 60.2476 77.4128 60.1627 76.1665C60.1447 75.9109 59.934 75.7194 59.6886 75.7384C59.4432 75.7555 59.2591 75.977 59.2771 76.2326Z" fill="#1F1F1F"/>
<path d="M28.9385 100.275C31.7329 100.147 34.5256 100.019 37.3182 99.8913Z" fill="white"/>
<path d="M28.959 100.738C31.7516 100.61 34.5442 100.482 37.3386 100.352C37.5822 100.341 37.7734 100.125 37.7625 99.8713C37.7516 99.6159 37.5446 99.417 37.2993 99.4286C34.5066 99.5566 31.714 99.6863 28.9196 99.8143C28.6743 99.824 28.4849 100.042 28.4958 100.295C28.5066 100.551 28.7137 100.75 28.959 100.738Z" fill="#1F1F1F"/>
<path d="M49.3599 17.0513C45.6585 18.3311 42.1739 20.2854 39.11 22.7985L39.6584 23.5254C42.6414 21.0797 46.0366 19.1761 49.638 17.9301L49.3599 17.0513Z" fill="#1F1F1F"/>
<path d="M31.7106 30.3738C20.2881 39.9096 13.1623 54.777 12.715 70.0079L13.603 70.0344C14.0376 55.0864 21.052 40.4507 32.2642 31.0953L31.7106 30.3738Z" fill="#1F1F1F"/>
<path d="M27.2001 46.4602C24.8166 49.2505 23.0581 52.6115 22.0959 56.2087L22.9524 56.4549C23.8773 52.996 25.5704 49.7581 27.8637 47.074L27.2001 46.4602Z" fill="#1F1F1F"/>
<path d="M145.592 64.8776C147.738 69.1381 148.754 74.0112 148.547 78.8244C148.484 80.3086 148.303 81.7879 148.006 83.2417L148.874 83.4309C149.182 81.9256 149.367 80.3965 149.433 78.8624C149.646 73.8865 148.6 68.8566 146.378 64.4466L145.592 64.8776Z" fill="#1F1F1F"/>
<path d="M72.5817 7.89453C75.579 8.95713 78.7375 9.51115 81.901 9.55276C84.5494 9.58759 87.2024 9.26356 89.7697 8.57758L89.5488 7.68099C87.0599 8.34765 84.4852 8.66162 81.9132 8.62779C78.8421 8.5874 75.7757 8.0494 72.8686 7.01943L72.5817 7.89453Z" fill="#1F1F1F"/>
</svg>
