<svg width="695" height="553" viewBox="0 0 695 553" fill="none" xmlns="http://www.w3.org/2000/svg">
<path d="M420.333 441.468C424.536 440.199 428.771 439.07 433.041 438.104C451.019 434.047 469.479 432.958 486.973 426.343C515.041 415.731 538.369 391.769 558.751 366.213C576.531 343.919 593.874 317.264 598.917 286.701C603.29 260.193 597.35 225.532 589.754 200.801C571.742 142.173 533.635 93.8446 487.745 64.5367C447.65 38.9311 395.698 29.6933 350.874 44.5224C325.528 52.9077 299.865 59.7906 274.014 65.135C255.191 69.0272 236.154 72.1126 217.176 71.3666C202.406 70.7847 187.782 67.8879 172.986 68.063C91.9507 69.0257 32.6343 164.623 25.202 253.93C22.0113 292.288 29.3908 329.594 42.5305 363.924C48.6499 379.915 56.889 394.778 62.1656 410.975C67.5892 427.628 75.6217 439.837 87.1445 451.284C139.034 502.83 212.538 522.576 279.681 503.008C328.118 488.891 372.182 456.001 420.333 441.468Z" fill="#2E417B"/>
<path d="M191.579 198.702C191.52 197.636 191.515 196.577 191.56 195.525C192.035 184.36 198.206 173.88 205.474 165.316C220.095 148.081 240.796 135.461 262.806 134.945C263.735 134.923 264.675 134.933 265.621 134.973C270.76 135.192 276.046 136.357 280.514 138.667C284.986 140.978 288.634 144.42 290.558 149.207C291.55 151.672 291.941 154.27 291.829 156.871C291.483 165.088 286.069 173.324 278.752 177.139C273.862 179.692 268.431 180.63 262.943 180.394C257.599 180.165 252.205 178.821 247.227 176.78C242.03 174.65 236.911 171.428 233.001 167.304C229.088 163.177 226.388 158.164 225.979 152.423C225.918 151.592 225.909 150.768 225.944 149.949C226.311 141.243 231.85 133.247 237.9 126.799C248.805 115.17 262.268 105.879 277.274 101.514C284.172 99.5066 291.409 98.5954 298.561 98.9024C306.963 99.263 315.25 101.305 322.739 105.223C327.287 107.603 331.594 110.745 334.311 115.148C337.039 119.564 337.903 124.696 337.675 130.005C337.448 135.284 336.139 140.729 334.524 145.762C333.049 150.365 331.293 154.983 328.148 158.462C325.566 161.323 321.807 163.289 318.165 163.128C317.386 163.095 316.612 162.966 315.853 162.729C313.389 161.959 311.306 160.145 309.518 158.126C302.628 150.358 299.614 139.567 300.073 128.88C300.24 124.991 300.867 121.118 301.93 117.414C305.922 103.516 315.364 91.7997 326.443 82.8939C332.32 78.1676 338.865 74.0695 346.1 72.6555C348.507 72.1858 350.942 72.0249 353.373 72.1293C360.252 72.4231 367.1 74.8461 373.162 78.3856C386.131 85.953 395.615 98.5923 400.583 113.081C403.458 121.467 404.406 129.668 404.051 137.926C403.692 146.299 401.991 154.731 399.597 163.457C398.165 168.68 393.58 178.186 387.621 186.261C381.666 194.353 374.313 200.97 367.518 200.653C363.905 200.495 360.378 198.439 357.141 193.518C354.954 190.187 354.077 186.114 354.253 182.023C354.355 179.64 354.814 177.254 355.576 175.014C357.649 168.923 361.717 163.737 366.216 159.191C389.909 135.253 422.128 122.4 454.092 123.773C467.067 124.33 480 127.231 492.307 132.683C499.174 135.723 505.988 139.727 509.951 146.188C512.007 149.537 512.807 152.78 512.675 155.904C512.363 163.418 506.537 170.341 499.262 175.879C491.997 181.416 483.323 185.563 477.465 187.612C472.04 189.515 459.039 191.525 446.599 190.988C439.087 190.667 431.772 189.415 426.445 186.697C423.781 185.339 421.619 183.62 420.158 181.48C418.699 179.34 417.929 176.782 418.06 173.684C418.133 171.971 418.485 170.094 419.158 168.039C419.878 165.828 421.469 163.992 423.171 162.346C426.243 159.368 429.732 156.824 433.593 155.167C438.007 153.272 442.841 152.564 447.634 152.576C448.233 152.577 448.833 152.592 449.434 152.618C461.016 153.113 472.834 158.074 481.66 166.037C490.489 174.001 496.32 184.941 496.01 197.42C495.876 202.846 496.003 208.081 495.785 213.176C495.419 221.658 494.1 229.739 489.035 237.743C483.423 246.608 474.3 253.252 464.218 254.637C462.163 254.92 460.109 254.989 458.055 254.901C450.843 254.592 443.634 252.324 436.496 250.471C431.901 249.28 427.086 248.274 422.321 248.068C417.567 247.864 412.856 248.459 408.476 250.476C402.06 253.439 397.136 260.487 396.827 267.465C396.715 270.068 397.256 272.665 398.617 275.011C399.904 277.219 402.053 279.164 404.601 279.281C404.744 279.287 404.889 279.287 405.035 279.282C407.319 279.189 409.022 277.699 410.163 275.724C411.309 273.745 411.936 271.254 412.123 268.99C412.167 268.455 412.199 267.92 412.222 267.386C412.555 259.631 410.74 251.797 407.03 245.075C405.149 241.671 402.707 238.456 399.393 236.465C396.76 234.886 393.784 234.205 390.758 234.075C388.555 233.981 386.324 234.178 384.169 234.537C370.947 236.732 360.107 243.76 353.628 255.738C347.587 266.922 337.545 275.049 331.489 286.645C325.608 297.924 321.848 310.695 321.301 323.451C320.941 331.831 321.968 340.206 324.697 348.142C331.153 366.895 348.341 382.001 367.334 382.825C368.619 382.88 369.912 382.869 371.211 382.79C381.825 382.139 391.817 377.203 400.454 370.817C423.538 353.745 438.387 325.242 439.649 295.874C439.686 295.018 439.712 294.162 439.725 293.305C439.887 283.013 438.326 272.288 432.771 263.706C428.153 256.58 420.338 251.338 412.193 250.983C410.518 250.911 408.829 251.048 407.154 251.418C397.652 253.531 390.773 262.466 387.736 271.971C385.537 278.856 384.967 286.09 384.655 293.317C384.538 296.059 384.458 298.8 384.342 301.521L384.339 301.597C382.205 351.32 366.973 400.42 340.738 442.132C330.994 457.623 319.503 472.346 304.569 482.316C296.281 487.849 286.694 491.871 276.945 491.451C276.744 491.443 276.542 491.431 276.341 491.419C266.392 490.81 256.391 484.689 253.028 475.009C251.71 471.226 251.43 467.123 251.605 463.046C251.631 462.433 251.667 461.819 251.712 461.207C253.529 436.325 268.047 414.643 279.39 392.442C286.579 378.36 292.581 362.249 293.255 346.583C293.644 337.527 292.248 328.618 288.262 320.358C280.151 303.561 262.538 294.493 244.379 293.713C234.387 293.284 224.219 295.365 215.355 300.062C200.064 308.169 188.595 322.26 181.171 338.104C177.907 345.073 174.07 354.947 173.671 364.194C173.345 371.633 175.284 378.722 181.605 383.417C183.95 385.16 186.678 386.017 189.479 386.137C195.395 386.386 201.636 383.381 205.442 378.463C209.062 373.773 211.172 367.353 211.447 360.945C211.67 355.749 210.686 350.555 208.288 346.301C203.538 337.888 194.157 333.837 185.273 331.15C172.966 327.431 160.218 325.278 147.403 324.728C140.031 324.412 132.638 324.625 125.293 325.376C121.271 325.788 116.736 327.112 113.136 329.296C109.543 331.476 106.844 334.552 106.671 338.48C106.638 339.257 106.705 340.063 106.882 340.896C107.424 343.464 108.871 345.34 110.811 346.57C112.751 347.804 115.176 348.413 117.734 348.525C121.401 348.681 125.344 347.811 128.55 346.2C148.912 335.941 159.558 312.197 164.304 289.334C166.344 279.512 167.575 269.515 168.005 259.482C168.87 239.331 166.502 219.039 160.94 199.734C157.36 187.3 152.264 174.915 143.389 165.712C136.643 158.718 127.368 153.884 117.954 153.477C114.97 153.349 111.974 153.667 109.043 154.505C98.9849 157.386 90.9088 167.439 90.4481 177.954C90.3516 180.202 90.6066 182.472 91.2688 184.691C93.1827 191.09 97.8283 196.036 102.038 200.936C120.336 222.2 133.973 247.785 141.631 275.21C142.143 277.041 142.416 279.22 142.329 281.268C142.248 283.167 141.853 284.951 141.085 286.242C140.31 287.533 139.213 288.343 137.588 288.413L137.244 288.413C135.766 288.353 134.334 287.507 132.987 286.609C116.349 275.569 103.39 258.654 96.751 239.316C94.9005 233.923 92.9806 227.791 90.1398 222.758C87.3031 217.728 83.5064 213.764 77.9233 212.856C77.4259 212.776 76.9272 212.725 76.4312 212.704C70.2316 212.446 64.2839 216.666 61.1089 222.252C58.5485 226.762 57.526 231.962 57.3019 237.186C57.2266 238.939 57.2403 240.697 57.3183 242.433C57.8219 253.726 61.8951 265.402 68.5072 274.389C75.1181 283.373 84.289 289.679 94.9747 290.139C95.8264 290.175 96.6878 290.174 97.5576 290.136C107.15 289.697 115.891 284.727 124.199 279.919C147.804 266.247 171.41 252.575 195.015 238.904C227.456 220.113 260.965 200.974 297.733 196.662C302.894 196.056 308.162 195.775 313.375 195.999C322.973 196.411 332.38 198.532 340.601 203.475C351.726 210.161 359.759 221.559 364.64 233.971C368.913 244.833 370.664 256.575 370.162 268.267C369.016 294.986 356.1 321.431 334.684 336.492C334.53 336.601 334.488 336.82 334.592 336.98C334.695 337.14 334.906 337.182 335.06 337.073C356.675 321.866 369.679 295.224 370.836 268.296C371.342 256.511 369.578 244.668 365.265 233.704C360.341 221.185 352.231 209.658 340.941 202.867C332.597 197.852 323.079 195.713 313.405 195.298C308.149 195.073 302.848 195.356 297.661 195.965C260.713 200.301 227.131 219.502 194.688 238.291C171.084 251.962 147.478 265.634 123.872 279.307C115.568 284.119 106.911 289.012 97.531 289.434C96.6801 289.473 95.8376 289.474 95.0047 289.438C84.5684 288.99 75.5708 282.827 69.044 273.961C62.5198 265.097 58.4861 253.54 57.9922 242.399C57.9161 240.679 57.9015 238.943 57.9757 237.214C58.1955 232.063 59.2048 226.981 61.6891 222.608C64.7509 217.206 70.527 213.145 76.4011 213.405C76.8728 213.425 77.3446 213.473 77.818 213.55C83.1288 214.415 86.7616 218.169 89.5575 223.113C92.3482 228.053 94.263 234.15 96.1157 239.552C102.808 259.042 115.856 276.074 132.623 287.202C133.987 288.103 135.506 289.036 137.214 289.113C137.344 289.119 137.478 289.119 137.611 289.114C139.458 289.048 140.809 288.054 141.658 286.609C142.514 285.163 142.916 283.274 143.002 281.296C143.093 279.163 142.812 276.921 142.278 275.012C134.592 247.486 120.907 221.81 102.542 200.467C98.3121 195.554 93.7545 190.665 91.9124 184.481C91.2737 182.343 91.0287 180.156 91.1219 177.983C91.5486 167.822 99.453 157.961 109.219 155.181C112.079 154.364 115.004 154.053 117.923 154.178C127.132 154.571 136.274 159.324 142.913 166.208C151.664 175.281 156.73 187.552 160.294 199.936C165.834 219.166 168.193 239.381 167.331 259.453C166.902 269.447 165.676 279.405 163.645 289.188C158.924 311.955 148.321 335.477 128.257 345.568C125.163 347.127 121.308 347.977 117.764 347.824C115.291 347.717 112.973 347.124 111.164 345.972C109.355 344.817 108.048 343.123 107.541 340.743C107.376 339.967 107.315 339.223 107.345 338.509C107.495 334.93 109.978 332.027 113.474 329.902C116.962 327.782 121.425 326.475 125.357 326.074C132.671 325.326 140.033 325.114 147.373 325.429C160.134 325.977 172.828 328.12 185.082 331.824C193.926 334.491 203.126 338.518 207.706 346.656C210.025 350.767 210.993 355.832 210.773 360.916C210.505 367.187 208.43 373.478 204.916 378.025C201.259 382.763 195.185 385.683 189.509 385.436C186.822 385.32 184.227 384.503 182 382.847C175.906 378.31 174.037 371.535 174.345 364.223C174.731 355.152 178.531 345.334 181.777 338.409C189.152 322.672 200.532 308.706 215.66 300.688C224.409 296.05 234.465 293.99 244.349 294.414C262.321 295.185 279.692 304.162 287.658 320.674C291.585 328.811 292.966 337.592 292.581 346.554C291.917 362.055 285.959 378.086 278.796 392.115C267.489 414.267 252.889 436.016 251.041 461.156C250.995 461.774 250.958 462.395 250.931 463.017C250.754 467.147 251.034 471.343 252.393 475.25C255.891 485.264 266.128 491.489 276.299 492.12C276.505 492.132 276.71 492.143 276.914 492.152C286.863 492.577 296.571 488.485 304.931 482.906C319.99 472.852 331.533 458.045 341.301 442.515C367.603 400.694 382.873 351.478 385.013 301.626L385.016 301.55C385.132 298.822 385.212 296.081 385.329 293.346C385.639 286.135 386.21 278.968 388.376 272.189C391.356 262.845 398.123 254.127 407.292 252.105C408.91 251.746 410.541 251.614 412.163 251.684C420.044 252.018 427.706 257.138 432.212 264.1C437.654 272.501 439.213 283.081 439.051 293.296C439.038 294.146 439.012 294.996 438.976 295.846C437.727 324.989 422.972 353.309 400.064 370.246C391.492 376.584 381.608 381.451 371.174 382.089C369.897 382.167 368.626 382.178 367.364 382.124C348.705 381.331 331.693 366.411 325.332 347.903C322.636 340.062 321.618 331.78 321.975 323.48C322.516 310.847 326.245 298.172 332.082 286.977C338.036 275.544 348.071 267.419 354.216 256.081C360.595 244.301 371.212 237.406 384.273 235.229C386.395 234.877 388.583 234.684 390.728 234.776C393.677 234.903 396.541 235.565 399.055 237.073C402.219 238.971 404.598 242.082 406.443 245.426C410.09 252.029 411.876 259.737 411.548 267.357C411.525 267.883 411.493 268.408 411.451 268.933C411.274 271.106 410.66 273.512 409.586 275.364C408.504 277.22 407.006 278.496 405.01 278.58C404.882 278.586 404.757 278.586 404.632 278.58C402.42 278.494 400.401 276.729 399.195 274.646C397.907 272.426 397.394 269.977 397.501 267.494C397.777 260.839 402.568 253.954 408.748 251.117C413.006 249.155 417.607 248.569 422.291 248.769C426.985 248.97 431.757 249.966 436.33 251.152C443.447 252.997 450.695 255.285 458.025 255.601C460.113 255.691 462.206 255.621 464.304 255.332C474.613 253.912 483.886 247.145 489.598 238.126C494.754 229.985 496.094 221.737 496.458 213.205C496.679 208.076 496.55 202.839 496.684 197.436C497.001 184.709 491.048 173.571 482.103 165.505C473.156 157.439 461.212 152.422 449.464 151.917C448.855 151.891 448.245 151.876 447.638 151.875C442.781 151.862 437.858 152.579 433.338 154.518C429.382 156.216 425.831 158.811 422.712 161.834C420.986 163.508 419.304 165.418 418.519 167.816C417.83 169.923 417.463 171.865 417.386 173.655C417.246 176.892 418.062 179.627 419.607 181.887C421.927 185.279 425.844 187.597 430.582 189.139C435.321 190.679 440.894 191.444 446.569 191.689C459.107 192.223 472.112 190.222 477.678 188.277C483.602 186.201 492.316 182.038 499.661 176.443C506.994 170.85 512.998 163.823 513.349 155.933C513.489 152.661 512.64 149.258 510.52 145.809C506.428 139.151 499.481 135.1 492.573 132.037C480.189 126.551 467.176 123.633 454.122 123.072C421.965 121.692 389.573 134.617 365.746 158.689C361.211 163.272 357.069 168.534 354.94 174.782C354.157 177.085 353.684 179.538 353.579 181.994C353.398 186.207 354.298 190.434 356.583 193.914C359.887 198.955 363.63 201.192 367.487 201.354C374.736 201.641 382.139 194.824 388.155 186.687C394.167 178.53 398.77 169.009 400.245 163.646C402.648 154.892 404.363 146.407 404.725 137.955C405.083 129.622 404.124 121.32 401.218 112.843C396.201 98.213 386.621 85.4333 373.494 77.7734C367.357 74.1929 360.416 71.7294 353.403 71.4283C350.925 71.322 348.439 71.4849 345.977 71.9663C338.58 73.4141 331.95 77.5815 326.032 82.3383C314.877 91.3083 305.334 103.127 301.285 117.215C300.204 120.976 299.569 124.904 299.399 128.851C298.934 139.691 301.987 150.668 309.021 158.601C310.848 160.661 313.011 162.57 315.657 163.4C316.473 163.655 317.302 163.794 318.135 163.829C322.032 163.992 325.94 161.926 328.639 158.942C331.902 155.327 333.679 150.607 335.164 145.981C336.79 140.911 338.118 135.411 338.349 130.034C338.581 124.63 337.702 119.338 334.879 114.766C332.063 110.209 327.648 107.006 323.044 104.598C315.459 100.629 307.08 98.5658 298.591 98.2015C291.365 97.8913 284.06 98.8122 277.094 100.839C261.949 105.246 248.391 114.61 237.417 126.31C231.327 132.81 225.663 140.915 225.271 149.92C225.234 150.765 225.244 151.618 225.305 152.477C225.731 158.421 228.527 163.588 232.519 167.797C236.513 172.008 241.707 175.273 246.977 177.434C252.017 179.499 257.479 180.862 262.913 181.095C268.491 181.335 274.04 180.382 279.054 177.766C286.589 173.824 292.132 165.414 292.503 156.899C292.62 154.205 292.214 151.501 291.181 148.935C289.183 143.962 285.392 140.402 280.817 138.038C276.239 135.675 270.868 134.496 265.652 134.272C264.692 134.231 263.737 134.222 262.793 134.244C240.538 134.77 219.689 147.505 204.969 164.852C197.652 173.481 191.381 184.075 190.886 195.496C190.84 196.572 190.845 197.655 190.906 198.745C190.917 198.938 191.077 199.085 191.262 199.073C191.449 199.062 191.591 198.895 191.579 198.702Z" fill="white"/>
<mask id="path-3-inside-1_40_4142" fill="white">
<path d="M193.201 268.55C186.499 267.521 179.641 266.316 173.808 262.787C167.974 259.256 163.311 252.862 163.647 245.911C163.932 240.019 167.756 234.759 172.549 231.5C177.342 228.24 183.024 226.685 188.646 225.464C220.1 218.63 250.48 225.313 281.449 231.398C302.714 235.577 324.155 237.684 345.446 241.249C364.39 244.422 383.526 251.418 397.096 266.093C400.723 270.011 403.862 274.383 407.199 278.574C422.421 297.696 441.57 312.925 460.54 327.978C471.748 336.87 483.097 345.85 496.026 351.7C523.581 364.171 556.579 364.384 586.112 364.034C618.462 363.649 650.916 361.847 683.177 365.137C699.462 366.796 699.885 376.459 709.366 389.471C723.782 409.252 724.668 436.393 719.764 460.623C716.128 478.586 707.516 501.993 690.882 510.863C670.618 521.667 649.604 518.803 627.205 517.328C601.053 515.605 581.178 509.422 555.422 504.478C522.724 498.202 481.123 499.729 447.857 499.861C422.109 499.965 397.844 494.821 373.803 485.532C361.209 480.665 349.608 473.492 338.086 466.358C328.662 460.522 319.218 454.674 310.393 447.925C299.651 439.707 289.79 430.133 278.028 423.544C267.653 417.732 256.154 414.445 244.962 410.539C239.889 408.769 234.642 406.717 231.078 402.61C216.543 385.857 237.365 368.638 250.456 362.001C243.408 360.124 236.155 358.144 230.361 353.62C224.568 349.095 220.545 341.328 222.475 334.108C223.59 329.937 226.455 326.685 229.799 324.193C232.752 321.994 238.508 320.614 240.642 318.005C239.023 317.365 237.156 317.147 235.444 316.781C220.916 313.676 206.333 310.563 191.523 309.523C187.44 309.239 175.109 307.909 172.026 305.152C169.365 302.771 176.19 299.995 176.31 296.369C176.704 284.435 184.711 275.558 193.766 269.137"/>
</mask>
<path d="M193.201 268.55C186.499 267.521 179.641 266.316 173.808 262.787C167.974 259.256 163.311 252.862 163.647 245.911C163.932 240.019 167.756 234.759 172.549 231.5C177.342 228.24 183.024 226.685 188.646 225.464C220.1 218.63 250.48 225.313 281.449 231.398C302.714 235.577 324.155 237.684 345.446 241.249C364.39 244.422 383.526 251.418 397.096 266.093C400.723 270.011 403.862 274.383 407.199 278.574C422.421 297.696 441.57 312.925 460.54 327.978C471.748 336.87 483.097 345.85 496.026 351.7C523.581 364.171 556.579 364.384 586.112 364.034C618.462 363.649 650.916 361.847 683.177 365.137C699.462 366.796 699.885 376.459 709.366 389.471C723.782 409.252 724.668 436.393 719.764 460.623C716.128 478.586 707.516 501.993 690.882 510.863C670.618 521.667 649.604 518.803 627.205 517.328C601.053 515.605 581.178 509.422 555.422 504.478C522.724 498.202 481.123 499.729 447.857 499.861C422.109 499.965 397.844 494.821 373.803 485.532C361.209 480.665 349.608 473.492 338.086 466.358C328.662 460.522 319.218 454.674 310.393 447.925C299.651 439.707 289.79 430.133 278.028 423.544C267.653 417.732 256.154 414.445 244.962 410.539C239.889 408.769 234.642 406.717 231.078 402.61C216.543 385.857 237.365 368.638 250.456 362.001C243.408 360.124 236.155 358.144 230.361 353.62C224.568 349.095 220.545 341.328 222.475 334.108C223.59 329.937 226.455 326.685 229.799 324.193C232.752 321.994 238.508 320.614 240.642 318.005C239.023 317.365 237.156 317.147 235.444 316.781C220.916 313.676 206.333 310.563 191.523 309.523C187.44 309.239 175.109 307.909 172.026 305.152C169.365 302.771 176.19 299.995 176.31 296.369C176.704 284.435 184.711 275.558 193.766 269.137" fill="white"/>
<path d="M173.808 262.787L173.291 263.643L173.291 263.643L173.808 262.787ZM163.647 245.911L162.648 245.863L162.648 245.863L163.647 245.911ZM172.549 231.5L173.111 232.327L173.111 232.327L172.549 231.5ZM188.646 225.464L188.858 226.441L188.858 226.441L188.646 225.464ZM281.449 231.398L281.642 230.417L281.642 230.417L281.449 231.398ZM345.446 241.249L345.611 240.263L345.611 240.263L345.446 241.249ZM397.096 266.093L396.362 266.772L396.362 266.772L397.096 266.093ZM407.199 278.574L407.981 277.951L407.982 277.951L407.199 278.574ZM460.54 327.978L459.919 328.761L459.919 328.761L460.54 327.978ZM496.026 351.7L496.439 350.789L496.439 350.789L496.026 351.7ZM586.112 364.034L586.124 365.034L586.124 365.034L586.112 364.034ZM683.177 365.137L683.075 366.132L683.075 366.132L683.177 365.137ZM709.366 389.471L708.558 390.06L708.558 390.06L709.366 389.471ZM719.764 460.623L720.744 460.821L720.744 460.821L719.764 460.623ZM690.882 510.863L691.352 511.745L691.352 511.745L690.882 510.863ZM627.205 517.328L627.14 518.326L627.14 518.326L627.205 517.328ZM555.422 504.478L555.61 503.496L555.61 503.496L555.422 504.478ZM447.857 499.861L447.853 498.861L447.853 498.861L447.857 499.861ZM373.803 485.532L373.443 486.464L373.443 486.464L373.803 485.532ZM338.086 466.358L337.559 467.208L337.559 467.208L338.086 466.358ZM310.393 447.925L309.786 448.719L309.786 448.719L310.393 447.925ZM278.028 423.544L277.54 424.417L277.54 424.417L278.028 423.544ZM244.962 410.539L245.292 409.595L245.292 409.595L244.962 410.539ZM231.078 402.61L230.323 403.265L230.323 403.265L231.078 402.61ZM250.456 362.001L250.714 361.035L253.244 361.709L250.909 362.893L250.456 362.001ZM230.361 353.62L229.745 354.408L229.745 354.408L230.361 353.62ZM222.475 334.108L223.441 334.366L223.441 334.366L222.475 334.108ZM229.799 324.193L229.202 323.391L229.202 323.391L229.799 324.193ZM240.642 318.005L241.009 317.075L242.283 317.578L241.416 318.638L240.642 318.005ZM235.444 316.781L235.653 315.803L235.653 315.803L235.444 316.781ZM191.523 309.523L191.592 308.526L191.593 308.526L191.523 309.523ZM172.026 305.152L171.359 305.898L171.359 305.898L172.026 305.152ZM176.31 296.369L175.31 296.336L175.31 296.336L176.31 296.369ZM193.201 268.55L193.049 269.538C186.364 268.511 179.315 267.288 173.291 263.643L173.808 262.787L174.326 261.932C179.966 265.344 186.635 266.53 193.353 267.562L193.201 268.55ZM173.808 262.787L173.291 263.643C167.253 259.989 162.289 253.293 162.648 245.863L163.647 245.911L164.646 245.96C164.333 252.43 168.696 258.524 174.326 261.932L173.808 262.787ZM163.647 245.911L162.648 245.863C162.953 239.569 167.016 234.053 171.987 230.673L172.549 231.5L173.111 232.327C168.495 235.466 164.912 240.469 164.646 245.96L163.647 245.911ZM172.549 231.5L171.987 230.674C176.95 227.297 182.796 225.711 188.434 224.487L188.646 225.464L188.858 226.441C183.251 227.659 177.734 229.183 173.111 232.327L172.549 231.5ZM188.646 225.464L188.434 224.487C220.13 217.601 250.729 224.343 281.642 230.417L281.449 231.398L281.256 232.379C250.232 226.284 220.071 219.66 188.858 226.441L188.646 225.464ZM281.449 231.398L281.642 230.417C292.245 232.5 302.899 234.069 313.576 235.563C324.246 237.057 334.948 238.477 345.611 240.263L345.446 241.249L345.281 242.235C334.652 240.456 323.989 239.04 313.299 237.544C302.617 236.049 291.917 234.474 281.256 232.379L281.449 231.398ZM345.446 241.249L345.611 240.263C364.662 243.454 384.047 250.509 397.83 265.414L397.096 266.093L396.362 266.772C383.004 252.326 364.118 245.39 345.281 242.235L345.446 241.249ZM397.096 266.093L397.83 265.413C401.49 269.368 404.686 273.813 407.981 277.951L407.199 278.574L406.417 279.197C403.038 274.953 399.956 270.655 396.362 266.772L397.096 266.093ZM407.199 278.574L407.982 277.951C423.12 296.969 442.177 312.13 461.162 327.194L460.54 327.978L459.919 328.761C440.963 313.719 421.721 298.422 406.417 279.196L407.199 278.574ZM460.54 327.978L461.162 327.194C472.387 336.1 483.64 344.999 496.439 350.789L496.026 351.7L495.614 352.612C482.553 346.702 471.11 337.64 459.919 328.761L460.54 327.978ZM496.026 351.7L496.439 350.789C523.761 363.154 556.536 363.384 586.1 363.034L586.112 364.034L586.124 365.034C556.621 365.383 523.402 365.187 495.614 352.612L496.026 351.7ZM586.112 364.034L586.1 363.034C618.391 362.65 650.942 360.845 683.278 364.143L683.177 365.137L683.075 366.132C650.889 362.85 618.533 364.648 586.124 365.034L586.112 364.034ZM683.177 365.137L683.278 364.143C687.446 364.567 690.661 365.51 693.282 366.93C695.908 368.353 697.884 370.226 699.61 372.431C701.322 374.618 702.808 377.16 704.426 379.905C706.053 382.667 707.835 385.673 710.174 388.882L709.366 389.471L708.558 390.06C706.156 386.764 704.33 383.682 702.702 380.921C701.065 378.142 699.65 375.726 698.035 373.663C696.435 371.619 694.659 369.951 692.329 368.689C689.994 367.424 687.049 366.537 683.075 366.132L683.177 365.137ZM709.366 389.471L710.174 388.882C724.831 408.995 725.671 436.477 720.744 460.821L719.764 460.623L718.784 460.424C723.664 436.31 722.732 409.51 708.558 390.06L709.366 389.471ZM719.764 460.623L720.744 460.821C718.914 469.862 715.828 480.297 711.088 489.607C706.354 498.906 699.922 507.176 691.352 511.745L690.882 510.863L690.411 509.981C698.475 505.681 704.667 497.812 709.306 488.699C713.94 479.598 716.978 469.348 718.784 460.424L719.764 460.623ZM690.882 510.863L691.352 511.745C670.78 522.714 649.421 519.793 627.14 518.326L627.205 517.328L627.271 516.331C649.787 517.813 670.457 520.62 690.411 509.981L690.882 510.863ZM627.205 517.328L627.14 518.326C600.907 516.598 580.866 510.381 555.233 505.46L555.422 504.478L555.61 503.496C581.49 508.464 601.199 514.613 627.271 516.331L627.205 517.328ZM555.422 504.478L555.233 505.46C522.659 499.208 481.195 500.728 447.861 500.861L447.857 499.861L447.853 498.861C481.051 498.729 522.79 497.196 555.61 503.496L555.422 504.478ZM447.857 499.861L447.861 500.861C421.971 500.966 397.582 495.792 373.443 486.464L373.803 485.532L374.164 484.599C398.105 493.85 422.246 498.964 447.853 498.861L447.857 499.861ZM373.803 485.532L373.443 486.464C360.747 481.558 349.068 474.333 337.559 467.208L338.086 466.358L338.612 465.507C350.148 472.65 361.67 479.771 374.164 484.599L373.803 485.532ZM338.086 466.358L337.559 467.208C328.142 461.377 318.656 455.503 309.786 448.719L310.393 447.925L311.001 447.131C319.78 453.844 329.181 459.668 338.612 465.507L338.086 466.358ZM310.393 447.925L309.786 448.719C304.407 444.605 299.202 440.113 293.966 435.903C288.703 431.67 283.348 427.67 277.54 424.417L278.028 423.544L278.517 422.672C284.471 426.007 289.927 430.088 295.22 434.344C300.54 438.623 305.637 443.027 311.001 447.131L310.393 447.925ZM278.028 423.544L277.54 424.417C267.265 418.661 255.9 415.415 244.633 411.483L244.962 410.539L245.292 409.595C256.409 413.474 268.041 416.803 278.517 422.672L278.028 423.544ZM244.962 410.539L244.633 411.483C239.577 409.72 234.083 407.598 230.323 403.265L231.078 402.61L231.834 401.954C235.202 405.836 240.201 407.819 245.292 409.595L244.962 410.539ZM231.078 402.61L230.323 403.265C226.545 398.911 225.013 394.456 225.133 390.103C225.253 385.775 227.002 381.658 229.586 377.941C234.74 370.527 243.377 364.469 250.004 361.109L250.456 362.001L250.909 362.893C244.445 366.17 236.124 372.04 231.228 379.083C228.787 382.595 227.238 386.339 227.133 390.158C227.028 393.953 228.344 397.932 231.834 401.955L231.078 402.61ZM250.456 362.001L250.199 362.967C243.183 361.099 235.727 359.078 229.745 354.408L230.361 353.62L230.976 352.831C236.584 357.21 243.633 359.149 250.714 361.035L250.456 362.001ZM230.361 353.62L229.745 354.408C223.755 349.729 219.441 341.584 221.509 333.85L222.475 334.108L223.441 334.366C221.649 341.071 225.381 348.461 230.976 352.831L230.361 353.62ZM222.475 334.108L221.509 333.85C222.702 329.383 225.754 325.96 229.202 323.391L229.799 324.193L230.397 324.995C227.156 327.41 224.477 330.491 223.441 334.366L222.475 334.108ZM229.799 324.193L229.202 323.391C230.789 322.209 233.112 321.255 235.113 320.343C236.144 319.873 237.113 319.406 237.949 318.906C238.789 318.402 239.439 317.897 239.868 317.372L240.642 318.005L241.416 318.638C240.778 319.418 239.908 320.063 238.976 320.621C238.04 321.182 236.985 321.687 235.942 322.163C233.793 323.143 231.762 323.978 230.397 324.995L229.799 324.193ZM240.642 318.005L240.274 318.935C238.758 318.335 237.081 318.154 235.234 317.758L235.444 316.781L235.653 315.803C237.232 316.141 239.289 316.395 241.009 317.075L240.642 318.005ZM235.444 316.781L235.235 317.759C220.696 314.651 206.181 311.555 191.453 310.521L191.523 309.523L191.593 308.526C206.485 309.571 221.137 312.7 235.653 315.803L235.444 316.781ZM191.523 309.523L191.454 310.521C189.386 310.377 185.246 309.97 181.223 309.249C179.213 308.889 177.209 308.447 175.5 307.913C173.829 307.39 172.301 306.74 171.359 305.898L172.026 305.152L172.693 304.407C173.292 304.943 174.462 305.493 176.097 306.004C177.695 306.503 179.608 306.928 181.576 307.281C185.51 307.985 189.577 308.385 191.592 308.526L191.523 309.523ZM172.026 305.152L171.359 305.898C170.91 305.495 170.587 305.016 170.464 304.453C170.342 303.892 170.443 303.364 170.631 302.906C170.982 302.049 171.732 301.234 172.404 300.535C173.133 299.776 173.851 299.078 174.42 298.33C174.988 297.585 175.29 296.935 175.31 296.336L176.31 296.369L177.309 296.402C177.269 297.616 176.674 298.672 176.011 299.542C175.35 300.409 174.506 301.234 173.846 301.92C173.129 302.666 172.664 303.218 172.481 303.665C172.401 303.859 172.405 303.966 172.418 304.027C172.431 304.085 172.477 304.214 172.693 304.407L172.026 305.152ZM176.31 296.369L175.31 296.336C175.72 283.933 184.041 274.807 193.188 268.322L193.766 269.137L194.345 269.953C185.38 276.309 177.687 284.938 177.309 296.402L176.31 296.369Z" fill="#2D427B" mask="url(#path-3-inside-1_40_4142)"/>
<path d="M406.87 278.86C422.134 298.032 441.312 313.28 460.282 328.333C471.491 337.225 482.864 346.232 495.856 352.111C496.074 352.208 496.325 352.105 496.421 351.878C496.516 351.652 496.418 351.39 496.201 351.291C483.335 345.471 472.011 336.516 460.803 327.623C441.831 312.571 422.71 297.358 407.531 278.288C407.381 278.099 407.111 278.073 406.928 278.229C406.746 278.388 406.72 278.669 406.87 278.86Z" fill="#2E417B"/>
<path d="M378.794 252.629C385.446 256.213 391.586 260.795 396.787 266.405C396.951 266.582 397.224 266.586 397.394 266.415C397.564 266.244 397.57 265.96 397.406 265.783C392.131 260.097 385.916 255.459 379.19 251.836C378.979 251.722 378.721 251.809 378.61 252.028C378.501 252.246 378.582 252.516 378.794 252.629Z" fill="#2E417B"/>
<path d="M327.382 238.822C340.736 240.591 354.146 242.731 366.855 247.333C367.078 247.414 367.322 247.29 367.401 247.058C367.479 246.825 367.362 246.57 367.138 246.489C354.332 241.852 340.862 239.708 327.494 237.935C327.259 237.905 327.044 238.078 327.013 238.322C326.981 238.567 327.147 238.791 327.382 238.822Z" fill="#2E417B"/>
<path d="M310.468 236.589C313.708 237.046 316.951 237.47 320.194 237.886C320.43 237.916 320.644 237.743 320.673 237.497C320.704 237.254 320.537 237.03 320.303 237C317.061 236.584 313.82 236.159 310.585 235.704C310.351 235.67 310.134 235.842 310.102 236.085C310.069 236.33 310.233 236.556 310.468 236.589Z" fill="#2E417B"/>
<path d="M322.809 456.159C318.671 453.423 314.596 450.583 310.649 447.564C310.458 447.418 310.19 447.462 310.05 447.66C309.909 447.859 309.95 448.138 310.14 448.284C314.107 451.318 318.198 454.17 322.348 456.913C322.548 457.045 322.813 456.983 322.941 456.776C323.068 456.567 323.009 456.291 322.809 456.159Z" fill="#2E417B"/>
<path d="M373.955 485.113C357.919 478.904 343.18 469.168 328.583 459.898C328.381 459.77 328.117 459.838 327.993 460.048C327.87 460.259 327.932 460.533 328.135 460.662C342.724 469.925 357.505 479.696 373.653 485.95C373.876 486.037 374.123 485.919 374.205 485.686C374.289 485.456 374.177 485.199 373.955 485.113Z" fill="#2E417B"/>
<path d="M251.522 301.011C251.018 312.771 239.962 321.848 226.829 321.284C213.696 320.72 203.459 310.729 203.964 298.97C204.468 287.211 215.524 278.136 228.657 278.699C241.79 279.263 252.027 289.252 251.522 301.011Z" fill="#1F1F1F"/>
<path d="M303.121 172.734L233.315 170.177L163.55 166.743C178.69 197.24 190.117 227.22 187.686 256.1L229.215 257.883L229.884 257.911L271.415 259.694C271.466 230.712 285.423 201.821 303.121 172.734Z" fill="white"/>
<path d="M303.121 172.734L303.137 172.287L233.332 169.731L233.315 170.177L233.337 169.731L163.571 166.297L163.189 166.502L163.169 166.948C177.641 196.096 188.684 224.731 187.497 252.302C187.444 253.558 187.364 254.812 187.259 256.062L187.363 256.395L187.667 256.546L229.197 258.329L229.865 258.357L271.396 260.14L271.71 260.016L271.842 259.692C271.845 258.438 271.875 257.182 271.928 255.928C273.107 228.355 286.565 200.771 303.482 172.971L303.501 172.525L303.137 172.287L303.121 172.734L302.759 172.495C285.822 200.339 272.271 228.037 271.072 255.891C271.017 257.158 270.989 258.426 270.986 259.695L271.415 259.694L271.434 259.248L229.903 257.465L229.235 257.436L187.705 255.654L187.686 256.1L188.112 256.138C188.22 254.873 188.3 253.608 188.354 252.339C189.544 224.486 178.42 195.729 163.929 166.536L163.55 166.743L163.527 167.189L233.294 170.623L233.299 170.624L303.104 173.18L303.121 172.734Z" fill="#1F1F1F"/>
<path d="M308.614 152.105C307.267 183.489 288.171 210.004 256.412 208.864C246.228 208.498 236.113 206.384 225.929 206.828C221.642 207.014 217.376 207.653 213.085 207.698C180.076 208.038 158.387 179.561 159.839 145.72C161.52 106.55 196.189 76.2261 237.271 77.9894C278.355 79.7528 310.296 112.936 308.614 152.105Z" fill="#FFC958"/>
<path d="M213.955 263.905C213.173 238.972 211.166 213.98 208.334 189.27C207.813 184.723 207.291 180.176 206.77 175.629C206.533 173.631 206.798 171.42 206.133 169.279C205.907 168.558 205.47 167.899 204.928 167.396C204.387 166.898 203.734 166.544 203.04 166.511C202.234 166.462 201.415 166.953 200.953 167.966C200.694 168.509 200.57 169.115 200.543 169.747C200.444 172.615 202.196 176.107 203.851 177.662C206.131 179.76 209.139 180.668 212.038 181.002C213.032 181.116 214.185 181.234 215.373 181.285C217.252 181.363 219.214 181.285 220.807 180.733C223.975 179.625 226.711 177.073 228.095 173.9C228.462 173.051 228.884 171.299 228.963 169.556C229.005 168.534 228.931 167.522 228.6 166.695C228.283 165.869 227.598 165.207 226.617 165.179C226.353 165.168 226.07 165.197 225.77 165.268C224.701 165.512 223.923 166.159 223.446 166.995C222.965 167.831 222.759 168.839 222.713 169.883C222.625 172.041 223.218 174.374 223.866 175.8C225.479 179.325 228.745 182.179 232.656 182.4L232.761 182.406C236.777 182.572 240.399 179.92 242.325 176.437C242.909 175.359 243.683 172.726 243.794 170.298C243.84 169.179 243.747 168.108 243.365 167.246C242.997 166.383 242.237 165.735 241.184 165.704C241.022 165.697 240.855 165.703 240.679 165.722C239.534 165.837 238.681 166.398 238.163 167.191C237.64 167.984 237.424 168.966 237.379 169.982C237.305 171.789 237.771 173.724 238.312 175C239.784 178.448 242.826 181.199 246.4 182.032C247.226 182.225 248.03 182.334 248.813 182.368C253.855 182.591 257.866 179.562 260.217 174.73C260.614 173.918 260.975 173.034 261.078 172.066L261.102 171.76C261.14 170.876 260.936 169.949 260.368 169.224C259.834 168.546 259.031 168.138 258.195 168.099L257.92 168.101C256.746 168.18 255.81 169.044 255.076 170.032C254.341 171.03 253.798 172.201 253.484 173.072C252.702 175.262 252.568 177.554 251.948 179.624C250.481 184.588 249.12 189.584 247.871 194.609C242.22 217.368 238.845 240.732 237.837 264.198C237.786 265.399 237.741 266.601 237.702 267.802C237.695 268.048 237.88 268.253 238.116 268.261C238.353 268.268 238.552 268.074 238.559 267.828C238.598 266.63 238.643 265.433 238.694 264.235C239.699 240.831 243.064 217.528 248.702 194.83C249.945 189.817 251.304 184.834 252.768 179.885C253.419 177.674 253.558 175.403 254.286 173.382C254.573 172.584 255.095 171.47 255.756 170.574C256.418 169.667 257.213 169.026 257.966 168.994L258.157 168.991C258.743 169.014 259.336 169.319 259.703 169.79C260.102 170.296 260.276 171.007 260.245 171.723L260.226 171.971C260.144 172.768 259.832 173.555 259.454 174.328C257.187 178.936 253.526 181.669 248.851 181.476C248.121 181.444 247.369 181.342 246.589 181.16C243.31 180.403 240.455 177.831 239.097 174.635C238.607 173.494 238.163 171.633 238.236 170.018C238.273 169.108 238.475 168.286 238.868 167.697C239.264 167.109 239.828 166.715 240.765 166.609L241.146 166.597C241.898 166.643 242.285 166.982 242.589 167.626C242.878 168.269 242.985 169.225 242.937 170.261C242.85 172.501 242.06 175.145 241.582 175.994C239.792 179.24 236.41 181.676 232.799 181.514L232.705 181.508C229.187 181.322 226.141 178.699 224.64 175.415C224.054 174.138 223.482 171.872 223.569 169.92C223.61 168.974 223.803 168.106 224.181 167.452C224.563 166.8 225.103 166.342 225.956 166.139C226.194 166.084 226.4 166.064 226.579 166.071C227.215 166.113 227.539 166.422 227.809 167.043C228.062 167.664 228.148 168.574 228.106 169.519C228.041 171.124 227.614 172.859 227.314 173.533C226.04 176.467 223.469 178.865 220.538 179.887C219.128 180.38 217.239 180.473 215.411 180.392C214.254 180.343 213.12 180.228 212.134 180.114C209.336 179.796 206.504 178.916 204.42 176.992C202.984 175.696 201.271 172.229 201.4 169.784C201.423 169.246 201.528 168.765 201.72 168.358C202.105 167.585 202.522 167.397 203.002 167.403C203.424 167.418 203.925 167.663 204.357 168.064C204.79 168.463 205.147 169.011 205.318 169.558C205.918 171.445 205.679 173.593 205.918 175.739C206.438 180.286 206.961 184.833 207.481 189.38C210.313 214.068 212.317 239.035 213.097 263.936C213.105 264.183 213.303 264.375 213.54 264.366C213.778 264.358 213.962 264.15 213.955 263.905Z" fill="#1F1F1F"/>
<path d="M208.629 188.08C208.551 187.413 208.484 185.696 208.371 183.578C208.199 180.387 207.916 176.222 207.25 172.775C206.914 171.05 206.491 169.503 205.891 168.298C205.587 167.695 205.239 167.172 204.791 166.763C204.35 166.356 203.779 166.071 203.154 166.048C202.938 166.038 202.719 166.058 202.502 166.105C201.699 166.273 201.034 166.754 200.649 167.383C200.258 168.01 200.114 168.724 200.082 169.434C200.011 171.526 200.854 173.797 201.419 174.949C202.32 176.743 203.585 178.099 205.062 179.087C206.54 180.076 208.223 180.71 209.997 181.122C211.454 181.462 212.987 181.686 214.534 181.753C217.372 181.873 220.259 181.469 222.777 180.233C225.293 179.002 227.429 176.893 228.616 173.755C228.917 172.958 229.07 171.935 229.121 170.823C229.176 169.514 229.075 168.109 228.729 166.925C228.552 166.335 228.318 165.79 227.95 165.335C227.593 164.882 227.034 164.518 226.386 164.496C225.865 164.473 225.354 164.651 224.867 164.96C224.377 165.271 223.892 165.719 223.376 166.322C222.228 167.658 221.656 169.198 221.593 170.734C221.481 173.669 223.07 176.483 225.352 178.622C227.648 180.759 230.694 182.259 233.774 182.396C235.779 182.486 237.813 181.967 239.554 180.628C241.297 179.29 242.717 177.163 243.606 174.157C243.785 173.552 243.878 172.824 243.914 172.02C243.97 170.633 243.847 169.04 243.465 167.69C243.269 167.015 243.014 166.394 242.625 165.877C242.245 165.367 241.654 164.938 240.934 164.911C240.381 164.887 239.836 165.091 239.329 165.443C238.817 165.796 238.315 166.304 237.781 166.99C236.978 168.023 236.585 169.217 236.537 170.407C236.442 173.068 237.856 175.669 239.626 177.799C241.419 179.929 243.572 181.585 245.382 182.21C246.453 182.571 247.56 182.774 248.669 182.821C251.169 182.928 253.683 182.246 255.815 180.781C256.282 180.454 256.804 179.933 257.41 179.242C258.307 178.211 259.333 176.831 260.167 175.39C260.995 173.943 261.655 172.472 261.727 171.075C261.766 170.324 261.585 169.516 261.023 168.925C260.461 168.334 259.654 168.062 258.692 168.02L258.242 168.017C256.864 168.06 255.757 168.879 254.925 169.827C254.088 170.787 253.477 171.926 253.093 172.889C251.136 177.857 250.281 183.725 248.948 188.706C248.823 189.181 249.089 189.674 249.547 189.804C250.003 189.934 250.475 189.654 250.602 189.179C251.963 184.051 252.825 178.241 254.679 173.563C254.991 172.769 255.533 171.775 256.19 171.029C256.853 170.271 257.586 169.812 258.279 169.803L258.615 169.805C259.328 169.837 259.656 170.025 259.799 170.179C259.938 170.332 260.028 170.55 260.014 171.002C259.996 171.543 259.765 172.332 259.375 173.175C258.795 174.442 257.885 175.844 257.002 176.992C256.56 177.566 256.125 178.078 255.747 178.482C255.373 178.883 255.039 179.181 254.873 179.292C253.06 180.539 250.901 181.129 248.745 181.037C247.791 180.996 246.836 180.821 245.915 180.509C244.592 180.077 242.52 178.553 240.92 176.625C239.297 174.7 238.152 172.371 238.251 170.48C238.291 169.628 238.544 168.852 239.115 168.108C239.571 167.518 239.968 167.138 240.271 166.931C240.577 166.721 240.763 166.691 240.857 166.695C240.97 166.704 241.079 166.74 241.279 166.99C241.567 167.355 241.861 168.152 242.019 169.073C242.183 169.995 242.24 171.041 242.201 171.946C242.173 172.642 242.081 173.262 241.969 173.636C241.157 176.365 239.935 178.12 238.539 179.192C237.143 180.262 235.539 180.681 233.851 180.612C231.27 180.508 228.524 179.186 226.499 177.291C224.462 175.397 223.2 172.968 223.307 170.808C223.359 169.666 223.753 168.569 224.655 167.507C225.091 166.995 225.469 166.666 225.755 166.485C226.042 166.302 226.22 166.276 226.309 166.28C226.412 166.29 226.481 166.309 226.64 166.493C226.869 166.76 227.123 167.398 227.257 168.183C227.399 168.967 227.447 169.89 227.408 170.75C227.37 171.717 227.211 172.62 227.024 173.1C225.984 175.812 224.231 177.537 222.048 178.618C219.868 179.694 217.244 180.082 214.611 179.968C213.177 179.907 211.741 179.697 210.376 179.379C208.741 179 207.252 178.426 205.995 177.584C204.737 176.738 203.703 175.632 202.938 174.117C202.476 173.227 201.712 171 201.795 169.507C201.815 169.001 201.925 168.603 202.083 168.356C202.248 168.111 202.426 167.954 202.849 167.853L203.077 167.832C203.32 167.846 203.562 167.958 203.89 168.357C204.457 169.042 205.011 170.52 205.403 172.335C206.009 175.064 206.338 178.557 206.535 181.599C206.737 184.658 206.804 187.217 206.926 188.298C206.982 188.787 207.408 189.136 207.879 189.076C208.349 189.015 208.686 188.569 208.629 188.08Z" fill="#1F1F1F"/>
<path d="M240.379 305.551L214.676 304.448C199.884 303.813 188.43 290.813 189.092 275.408L189.757 259.914L269.022 263.317L268.357 278.811C267.696 294.215 255.17 306.186 240.379 305.551Z" fill="#1F1F1F"/>
<path d="M240.379 305.553L214.676 304.45C199.884 303.815 188.431 290.811 189.092 275.408L189.757 259.914L269.022 263.316L268.357 278.81C267.696 294.213 255.17 306.188 240.379 305.553Z" fill="#4884CD"/>
<path d="M188.761 268.293L269.151 271.744C269.387 271.754 269.588 271.562 269.598 271.316C269.609 271.07 269.425 270.862 269.189 270.852L188.8 267.401C188.563 267.391 188.363 267.583 188.352 267.829C188.342 268.075 188.525 268.283 188.761 268.293Z" fill="#1F1F1F"/>
<path d="M188.372 277.372L268.761 280.823C268.997 280.833 269.198 280.641 269.209 280.395C269.219 280.149 269.036 279.941 268.799 279.931L188.41 276.48C188.174 276.47 187.973 276.662 187.963 276.908C187.952 277.154 188.135 277.362 188.372 277.372Z" fill="#1F1F1F"/>
<path d="M187.982 286.451L268.371 289.902C268.608 289.912 268.808 289.72 268.819 289.474C268.829 289.228 268.646 289.02 268.41 289.009L188.02 285.559C187.784 285.549 187.583 285.741 187.573 285.987C187.562 286.233 187.746 286.441 187.982 286.451Z" fill="#1F1F1F"/>
<path d="M187.592 295.53L267.982 298.981C268.218 298.991 268.419 298.799 268.429 298.553C268.44 298.307 268.256 298.098 268.02 298.088L187.631 294.638C187.394 294.628 187.194 294.819 187.183 295.066C187.173 295.312 187.356 295.52 187.592 295.53Z" fill="#1F1F1F"/>
<path d="M275.391 264.394L183.32 260.443L183.562 254.807L275.633 258.759L275.391 264.394Z" fill="#1F1F1F"/>
<path d="M182.986 224.392C179.139 224.774 175.574 226.886 172.56 229.549C167.208 234.273 163.179 241.174 162.792 248.658C162.407 256.139 166.231 263.987 172.623 266.648C179.402 269.472 187.577 265.811 191.78 259.288C198.016 249.609 198.966 222.807 182.986 224.392Z" fill="white"/>
<path d="M263.547 407.856C264.194 403.789 264.605 399.684 264.782 395.567C265.312 383.221 263.734 370.784 260.105 359.01C259.69 357.669 259.273 356.357 259.32 355.067L259.32 355.015C259.367 353.876 259.77 352.732 260.155 351.552C261.693 346.813 262.561 341.861 262.775 336.879C263.179 327.459 261.243 317.93 257.056 309.537C256.947 309.318 256.688 309.234 256.479 309.348C256.268 309.462 256.186 309.732 256.295 309.951C260.41 318.198 262.316 327.575 261.918 336.842C261.708 341.742 260.853 346.612 259.344 351.269C258.968 352.431 258.524 353.651 258.464 354.978L258.463 355.039C258.415 356.549 258.882 357.955 259.288 359.286C262.888 370.957 264.451 383.289 263.925 395.53C263.75 399.611 263.342 403.68 262.702 407.713C262.662 407.956 262.821 408.186 263.054 408.225C263.288 408.265 263.509 408.1 263.547 407.856Z" fill="#2E417B"/>
<path d="M230.996 358.547C227.109 357.792 223.262 356.853 219.461 355.735C213.371 353.942 206.819 351.154 204.151 345.256C202.95 342.602 202.694 339.598 202.72 336.668C202.753 333.353 203.134 329.987 204.388 326.927C206.731 321.199 212.239 316.966 218.247 316.275C222.448 315.79 226.639 316.914 230.84 317.379C239.351 318.321 248.876 316.808 255.676 322.131C262.751 327.664 265.28 341.643 261.02 349.762C255.346 360.574 240.983 360.486 230.996 358.547Z" fill="white"/>
<path d="M262.878 362.572C257.323 360.692 251.323 360.96 245.476 361.249C241.014 361.469 236.551 361.69 232.087 361.908C229.481 362.038 226.799 362.183 224.426 363.306C220.095 365.353 217.712 370.178 216.255 374.838C213.613 383.293 213.337 393.587 219.339 399.961C223.432 404.309 229.703 405.894 235.591 405.528C241.477 405.158 247.119 403.073 252.666 401.007C255.857 399.819 259.047 398.633 262.236 397.444C265.056 396.395 267.949 395.3 270.183 393.244C280.494 383.759 274.875 366.632 262.878 362.572Z" fill="white"/>
<path d="M196.426 275.08C196.049 273.889 195.579 272.798 195.011 271.851C187.646 259.588 170.916 268.697 165.627 277.793C162.258 283.587 161.235 290.769 162.853 297.301C164.845 305.338 172.898 310.473 180.899 309.105C186.391 308.163 191.253 304.407 194.133 299.507C197.469 293.829 198.763 282.492 196.426 275.08Z" fill="white"/>
<path d="M245.632 351.999C241.929 351.536 238.312 350.537 234.71 349.543C231.918 348.768 229.005 347.93 226.895 345.9C224.359 343.458 223.436 339.673 223.485 336.098C223.513 334.215 223.78 332.31 224.516 330.583C226.412 326.13 231.175 323.537 235.875 322.983C238.614 322.66 245.298 322.313 247.61 324.144C250.324 326.295 248.283 328.233 247.163 331.244C246.453 333.156 242.494 351.607 245.632 351.999Z" fill="#E2E8FB"/>
<path d="M245.683 351.557C242.02 351.099 238.422 350.106 234.821 349.111C232.029 348.341 229.189 347.506 227.187 345.571C224.775 343.258 223.863 339.599 223.913 336.103C223.916 335.908 223.921 335.711 223.93 335.515C224 333.868 224.278 332.239 224.908 330.764C226.707 326.512 231.328 323.964 235.92 323.427C237.26 323.268 239.585 323.103 241.843 323.2C244.124 323.287 246.357 323.692 247.349 324.5C248.319 325.285 248.544 325.894 248.525 326.572C248.501 327.692 247.49 329.166 246.762 331.084C246.624 331.459 246.415 332.251 246.154 333.367C245.381 336.708 244.221 342.782 244.034 347.131C243.975 348.514 244.011 349.719 244.204 350.644C244.303 351.108 244.439 351.505 244.653 351.827C244.862 352.147 245.188 352.397 245.578 352.442L245.894 352.35L246.056 352.052L245.969 351.724L245.683 351.557C245.567 351.537 245.479 351.491 245.357 351.316C245.177 351.054 245.017 350.514 244.939 349.794C244.859 349.072 244.846 348.172 244.891 347.168C245.01 344.35 245.561 340.709 246.143 337.623C246.434 336.079 246.733 334.674 246.988 333.575C247.241 332.481 247.459 331.675 247.562 331.402C248.216 329.602 249.292 328.175 249.381 326.609C249.434 325.624 248.976 324.65 247.87 323.789C246.536 322.756 244.233 322.419 241.881 322.308C239.56 322.21 237.209 322.377 235.826 322.539C231.021 323.109 226.115 325.75 224.123 330.404C223.436 332.013 223.147 333.755 223.073 335.478C223.064 335.684 223.059 335.889 223.055 336.093C223.007 339.746 223.941 343.659 226.604 346.229C228.82 348.355 231.805 349.197 234.598 349.974C238.2 350.969 241.835 351.974 245.578 352.442L245.894 352.35L246.056 352.052L245.969 351.724L245.683 351.557Z" fill="#2E417B"/>
<path d="M263.339 390.126C257.582 391.278 251.667 391.575 245.831 391.012C245.022 390.934 244.176 390.824 243.511 390.344C242.867 389.874 242.488 389.116 242.147 388.383C239.466 382.615 236.231 373.974 242.337 369.084C245.858 366.264 253.119 366.129 257.332 365.284C257.676 367.553 260.375 390.719 263.339 390.126Z" fill="#E2E8FB"/>
<path d="M263.34 390.126L263.261 389.688C258.579 390.624 253.792 390.993 249.029 390.788C247.973 390.743 246.921 390.669 245.871 390.569C245.071 390.493 244.3 390.376 243.758 389.977C243.228 389.597 242.868 388.917 242.534 388.187C240.911 384.708 239.116 380.191 239.294 376.203C239.412 373.619 240.305 371.28 242.597 369.437C244.245 368.112 246.888 367.367 249.646 366.883C252.405 366.395 255.268 366.152 257.413 365.723L257.333 365.284L256.909 365.355C257.076 366.453 257.818 372.654 258.883 378.585C259.415 381.554 260.028 384.458 260.698 386.652C261.034 387.75 261.382 388.669 261.76 389.35C261.949 389.689 262.145 389.973 262.371 390.19C262.595 390.405 262.866 390.569 263.185 390.582L263.419 390.566L263.695 390.377L263.762 390.044L263.582 389.757L263.261 389.688L263.34 390.126L263.263 389.688L263.223 389.692L262.953 389.534C262.701 389.298 262.376 388.744 262.069 387.976C260.975 385.276 259.951 380.018 259.186 375.242C258.419 370.456 257.898 366.148 257.756 365.213L257.58 364.919L257.254 364.846C255.185 365.261 252.311 365.508 249.505 366.003C246.698 366.502 243.951 367.237 242.076 368.73C239.57 370.73 238.549 373.393 238.437 376.166C238.26 380.454 240.127 385.056 241.761 388.578C242.107 389.317 242.508 390.153 243.266 390.711C244.052 391.274 244.975 391.374 245.79 391.457C246.853 391.56 247.921 391.634 248.99 391.68C253.818 391.888 258.673 391.515 263.421 390.566C263.653 390.518 263.805 390.285 263.762 390.044C263.718 389.801 263.495 389.643 263.263 389.688L263.34 390.126Z" fill="#2E417B"/>
<path d="M307.988 323.744C308.504 332.397 308.558 342.21 308.12 352.427C307.119 375.778 303.532 401.256 296.979 419.873C296.897 420.105 297.011 420.36 297.234 420.445C297.457 420.529 297.703 420.409 297.785 420.177C304.385 401.416 307.971 375.883 308.976 352.464C309.416 342.216 309.361 332.376 308.845 323.686C308.83 323.44 308.627 323.254 308.389 323.269C308.154 323.286 307.975 323.498 307.988 323.744Z" fill="#2E417B"/>
<path d="M328.207 347.458C328.123 357.61 327.27 385.174 327.187 395.348C327.185 395.594 327.373 395.795 327.612 395.797C327.847 395.798 328.041 395.599 328.043 395.352C328.127 385.2 328.98 357.636 329.065 347.463C329.067 347.216 328.877 347.015 328.64 347.014C328.403 347.012 328.209 347.211 328.207 347.458Z" fill="#2E417B"/>
<path d="M393.784 300.182C386.594 292.331 376.041 288.688 365.684 286.901C355.326 285.114 344.719 284.886 334.491 282.439C311.457 276.93 292.496 260.829 273.538 246.331C267.203 241.484 259.798 236.52 252.011 237.963C243.641 239.513 237.973 248.482 237.652 257.206C237.331 265.932 241.249 274.245 246.067 281.427C254.078 293.368 264.87 303.328 277.285 310.241C282.108 312.925 287.171 315.157 291.871 318.066C298.937 322.441 305.043 328.258 310.889 334.24C329.089 352.873 344.177 375.297 363.119 392.996C379.906 408.683 402.528 417.829 425.297 417.507" fill="white"/>
<path d="M394.097 299.873C386.8 291.914 376.157 288.257 365.756 286.461C355.358 284.669 344.76 284.439 334.589 282.004C311.684 276.53 292.762 260.483 273.793 245.97C268.39 241.844 262.179 237.572 255.496 237.278C254.322 237.227 253.135 237.301 251.938 237.522C243.351 239.132 237.615 248.202 237.23 257.056L237.224 257.191C236.9 266.071 240.875 274.465 245.716 281.684C253.767 293.684 264.608 303.688 277.084 310.634C281.929 313.331 286.986 315.561 291.651 318.45C298.668 322.793 304.75 328.583 310.589 334.56C328.753 353.152 343.843 375.581 362.834 393.329C378.534 408.001 399.301 416.972 420.555 417.885C422.134 417.952 423.718 417.976 425.303 417.954C425.54 417.95 425.729 417.747 425.727 417.5C425.724 417.255 425.532 417.058 425.295 417.06C423.725 417.082 422.157 417.059 420.593 416.992C399.546 416.091 378.956 407.196 363.407 392.664C344.513 375.013 329.427 352.595 311.19 333.921C305.338 327.933 299.209 322.088 292.091 317.682C287.359 314.753 282.29 312.518 277.49 309.847C265.133 302.967 254.391 293.053 246.42 281.171C241.624 274.027 237.761 265.792 238.081 257.221L238.087 257.092C238.447 248.582 244.018 239.878 252.085 238.402C253.219 238.192 254.342 238.122 255.458 238.17C261.801 238.433 267.911 242.575 273.285 246.69C292.231 261.175 311.23 277.327 334.394 282.875C344.68 285.333 355.295 285.56 365.614 287.342C375.929 289.12 386.388 292.749 393.475 300.49C393.639 300.669 393.909 300.675 394.082 300.504C394.252 300.334 394.259 300.052 394.097 299.873Z" fill="#2E417B"/>
<path d="M256.15 240.052C256.654 239.802 257.194 239.559 257.751 239.615C258.256 239.665 258.702 239.952 259.124 240.238C264.034 243.572 268.284 247.925 271.542 252.96C264.977 257.231 259.475 263.215 255.691 270.189C254.797 269.02 253.499 268.271 252.275 267.477C249.461 265.65 246.881 263.448 244.616 260.946C242.032 258.093 241.058 256.838 242.889 253.276C245.82 247.587 250.502 242.866 256.15 240.052Z" fill="#E2E8FB"/>
<path d="M256.151 240.052L256.335 240.454C256.801 240.219 257.252 240.033 257.643 240.053L257.709 240.058C258.08 240.091 258.474 240.326 258.889 240.612C263.751 243.914 267.961 248.226 271.187 253.209L271.543 252.96L271.317 252.58C264.69 256.893 259.138 262.93 255.318 269.97L255.692 270.188L256.028 269.91C255.061 268.651 253.712 267.885 252.503 267.096C249.721 265.293 247.169 263.112 244.929 260.64C244.065 259.687 243.396 258.924 242.969 258.23C242.541 257.534 242.35 256.936 242.378 256.215C242.408 255.501 242.677 254.635 243.269 253.486C246.155 247.88 250.773 243.226 256.335 240.454L256.151 240.052L255.967 239.649C250.234 242.506 245.486 247.293 242.513 253.065C241.891 254.275 241.562 255.261 241.521 256.178C241.479 257.104 241.757 257.926 242.248 258.715C242.739 259.509 243.438 260.295 244.304 261.253C246.595 263.782 249.202 266.009 252.048 267.855C253.287 268.655 254.536 269.39 255.357 270.467L255.726 270.633L256.065 270.406C259.812 263.499 265.265 257.571 271.769 253.338L271.961 253.051L271.899 252.709C268.607 247.624 264.317 243.23 259.36 239.864C258.931 239.577 258.433 239.238 257.795 239.169L257.681 239.161C257.021 239.138 256.453 239.41 255.967 239.649L256.151 240.052Z" fill="#2E417B"/>
<path d="M382.679 407.808C396.81 423.061 413.827 435.481 432.503 444.178C432.718 444.278 432.973 444.176 433.07 443.952C433.168 443.727 433.071 443.464 432.855 443.361C414.278 434.712 397.352 422.359 383.296 407.188C383.132 407.011 382.861 407.006 382.691 407.178C382.52 407.349 382.515 407.631 382.679 407.808Z" fill="#2E417B"/>
<path d="M219.343 356.165C223.155 357.286 227.016 358.228 230.914 358.985C233.381 359.465 236.113 359.832 238.921 359.953C243.241 360.137 247.741 359.742 251.729 358.252C255.715 356.766 259.198 354.166 261.395 349.975C262.694 347.499 263.371 344.525 263.504 341.417C263.812 334.011 261.077 325.813 255.935 321.774C251.102 317.997 245.198 317.184 239.28 316.928C238.559 316.897 237.837 316.875 237.118 316.856C236.882 316.85 236.685 317.045 236.678 317.292C236.67 317.538 236.857 317.743 237.094 317.749C237.811 317.768 238.527 317.789 239.242 317.82C245.117 318.07 250.82 318.887 255.418 322.488C260.243 326.242 262.963 334.225 262.647 341.38C262.519 344.38 261.863 347.226 260.644 349.55C258.558 353.52 255.284 355.975 251.442 357.412C247.603 358.847 243.205 359.243 238.96 359.061C236.201 358.942 233.506 358.58 231.074 358.107C227.201 357.355 223.365 356.42 219.579 355.306C219.352 355.239 219.114 355.375 219.049 355.614C218.984 355.851 219.116 356.098 219.344 356.165" fill="#2E417B"/>
<path d="M235.615 405.972C241.582 405.597 247.263 403.492 252.81 401.428C256.001 400.24 259.191 399.052 262.38 397.864C265.199 396.814 268.149 395.708 270.467 393.58C274.084 390.254 275.801 385.984 275.985 381.671C276.334 373.38 271.102 364.893 263.014 362.147C260.154 361.18 257.19 360.774 254.204 360.646C251.288 360.521 248.348 360.661 245.459 360.803C245.223 360.815 245.039 361.023 245.049 361.27C245.061 361.516 245.26 361.706 245.497 361.695C248.384 361.551 251.299 361.415 254.166 361.538C257.1 361.664 259.984 362.061 262.745 362.997C270.441 365.592 275.473 373.756 275.128 381.634C274.949 385.731 273.34 389.743 269.9 392.91C267.752 394.891 264.914 395.978 262.095 397.024C258.905 398.212 255.714 399.398 252.524 400.586C246.978 402.654 241.373 404.719 235.568 405.082C235.33 405.097 235.15 405.307 235.163 405.554C235.176 405.8 235.38 405.987 235.615 405.972Z" fill="#2E417B"/>
<path d="M177.248 267.903C179.658 267.658 182.14 267.409 184.48 266.49C189.679 264.441 192.968 259.205 194.614 254.014C195.64 250.776 196.282 247.271 196.433 243.752C196.573 240.483 196.29 237.203 195.489 234.114C194.044 228.505 190.295 224.135 184.662 223.897C184.107 223.873 183.536 223.89 182.947 223.947C178.971 224.343 175.339 226.511 172.283 229.208C172.103 229.368 172.08 229.65 172.232 229.839C172.385 230.026 172.655 230.048 172.837 229.888C175.81 227.261 179.304 225.203 183.025 224.837C183.577 224.782 184.11 224.767 184.624 224.789C189.803 225.015 193.251 228.973 194.66 234.35C195.434 237.337 195.713 240.527 195.576 243.716C195.43 247.147 194.801 250.576 193.8 253.738C192.207 258.775 189.02 263.762 184.181 265.655C181.984 266.519 179.577 266.771 177.167 267.015C176.931 267.039 176.759 267.256 176.781 267.502C176.803 267.748 177.012 267.927 177.248 267.903Z" fill="#2E417B"/>
<path d="M180.965 309.544C186.601 308.578 191.556 304.739 194.498 299.739C196.717 295.96 198.045 290.781 198.271 285.538C198.518 279.712 197.41 273.804 194.524 269.68C192.557 266.865 189.85 265.671 186.966 265.555C185.498 265.492 183.982 265.698 182.467 266.087C182.236 266.147 182.095 266.389 182.152 266.628C182.208 266.868 182.439 267.014 182.67 266.954C184.123 266.58 185.562 266.388 186.928 266.447C189.617 266.569 192.008 267.621 193.83 270.208C196.554 274.082 197.662 279.818 197.415 285.501C197.197 290.612 195.886 295.674 193.768 299.275C190.948 304.071 186.18 307.75 180.83 308.664C180.596 308.704 180.437 308.933 180.475 309.176C180.512 309.419 180.732 309.584 180.965 309.544Z" fill="#2E417B"/>
<path d="M302.471 277.743C298.093 280.298 294.341 284.007 291.664 288.431C291.538 288.64 291.597 288.916 291.797 289.046C291.997 289.178 292.263 289.115 292.389 288.906C294.988 284.61 298.638 281.002 302.889 278.521C303.095 278.401 303.171 278.129 303.055 277.913C302.94 277.699 302.679 277.622 302.471 277.743Z" fill="#2E417B"/>
<path d="M301.786 283.224C300.419 285.198 298.774 286.965 296.924 288.45C296.735 288.601 296.701 288.88 296.845 289.076C296.988 289.271 297.258 289.306 297.446 289.155C299.362 287.618 301.065 285.789 302.481 283.745C302.62 283.544 302.577 283.265 302.384 283.121C302.193 282.979 301.925 283.024 301.786 283.224Z" fill="#2E417B"/>
<path d="M309.527 282.451C307.591 287.3 304.059 291.453 299.67 294.038C299.462 294.159 299.391 294.432 299.507 294.646C299.623 294.862 299.884 294.935 300.09 294.814C304.649 292.128 308.306 287.828 310.318 282.791C310.41 282.562 310.306 282.302 310.087 282.209C309.87 282.114 309.618 282.223 309.527 282.451Z" fill="#2E417B"/>
<path d="M501.134 363.761C504.828 365.55 508.776 366.766 512.812 367.359C513.047 367.394 513.264 367.225 513.298 366.981C513.333 366.736 513.169 366.511 512.935 366.476C508.983 365.893 505.115 364.703 501.498 362.951C501.283 362.847 501.028 362.944 500.928 363.168C500.827 363.393 500.921 363.658 501.134 363.761Z" fill="#2E417B"/>
<path d="M516.306 367.977C524.952 369.594 533.704 370.596 542.485 370.973C546.055 371.126 549.632 371.176 553.208 371.122C553.445 371.118 553.634 370.915 553.633 370.67C553.629 370.423 553.435 370.225 553.198 370.229C549.639 370.282 546.078 370.233 542.523 370.08C533.782 369.705 525.067 368.709 516.461 367.099C516.228 367.055 516.004 367.217 515.961 367.458C515.918 367.701 516.073 367.933 516.306 367.977Z" fill="#2E417B"/>
<path d="M523.827 374.244C525.956 374.412 528.088 374.581 530.219 374.751C530.455 374.77 530.662 374.586 530.681 374.34C530.699 374.094 530.524 373.881 530.288 373.862C528.155 373.692 526.024 373.523 523.894 373.355C523.658 373.336 523.451 373.52 523.433 373.766C523.414 374.012 523.59 374.227 523.826 374.246" fill="#2E417B"/>
<path d="M449.243 499.705C458.411 499.11 467.461 496.529 475.652 492.169C475.863 492.055 475.946 491.786 475.839 491.567C475.732 491.347 475.475 491.259 475.262 491.372C467.18 495.677 458.243 498.227 449.192 498.814C448.956 498.829 448.775 499.042 448.789 499.287C448.802 499.532 449.006 499.72 449.243 499.705Z" fill="#2E417B"/>
<path d="M481.252 487.975C483.164 484.882 485.292 481.935 487.614 479.161C487.769 478.975 487.752 478.694 487.574 478.532C487.395 478.371 487.125 478.39 486.968 478.576C484.619 481.382 482.466 484.364 480.531 487.494C480.402 487.701 480.46 487.979 480.659 488.111C480.857 488.244 481.123 488.184 481.252 487.975Z" fill="#2E417B"/>
<path d="M515.659 490.965C521.352 491.209 527.044 491.453 532.739 491.698C532.975 491.708 533.176 491.516 533.186 491.27C533.197 491.023 533.014 490.816 532.777 490.806C527.082 490.561 521.39 490.317 515.697 490.072C515.461 490.062 515.26 490.253 515.25 490.5C515.239 490.746 515.422 490.955 515.659 490.965Z" fill="#2E417B"/>
<path d="M372.503 404.647C373.533 409.157 374.991 413.558 376.847 417.769C376.946 417.992 377.201 418.09 377.416 417.987C377.63 417.883 377.726 417.617 377.627 417.393C375.794 413.237 374.353 408.89 373.338 404.438C373.283 404.2 373.052 404.052 372.821 404.11C372.591 404.166 372.448 404.409 372.503 404.649" fill="#2E417B"/>
<path d="M383.65 432.708C383.98 435.872 385.932 438.455 387.783 440.769C392.72 446.921 397.972 452.8 403.507 458.37C403.677 458.542 403.948 458.537 404.114 458.358C404.278 458.181 404.274 457.898 404.103 457.727C398.591 452.179 393.36 446.323 388.441 440.197C386.595 437.897 384.785 435.431 384.504 432.611C384.479 432.366 384.268 432.189 384.032 432.217C383.797 432.242 383.627 432.464 383.65 432.708Z" fill="#2E417B"/>
<path d="M219.99 371.77C217.668 374.747 216.345 378.511 216.181 382.324C216.116 383.83 216.233 385.346 216.542 386.821C216.594 387.063 216.822 387.214 217.053 387.161C217.284 387.107 217.431 386.87 217.38 386.628C217.088 385.23 216.976 383.792 217.038 382.361C217.193 378.737 218.456 375.147 220.654 372.331C220.805 372.139 220.777 371.859 220.593 371.705C220.409 371.549 220.139 371.578 219.99 371.77Z" fill="#2E417B"/>
<path d="M221.458 379.445C220.934 381.159 220.631 382.944 220.554 384.737C220.523 385.476 220.53 386.216 220.576 386.953C220.591 387.199 220.794 387.384 221.03 387.368C221.268 387.351 221.447 387.139 221.432 386.893C221.388 386.187 221.381 385.481 221.411 384.774C221.485 383.059 221.776 381.352 222.275 379.713C222.347 379.478 222.222 379.228 221.997 379.154C221.77 379.08 221.53 379.211 221.458 379.445Z" fill="#2E417B"/>
<path d="M207.721 329.077C207.229 330.533 206.946 332.063 206.88 333.603C206.863 333.98 206.859 334.357 206.871 334.733C206.877 334.98 207.075 335.172 207.31 335.165C207.548 335.157 207.735 334.95 207.728 334.705C207.718 334.351 207.721 333.995 207.736 333.64C207.799 332.188 208.067 330.744 208.529 329.369C208.608 329.137 208.49 328.883 208.267 328.802C208.044 328.721 207.798 328.845 207.721 329.077Z" fill="#2E417B"/>
<path d="M205.825 340.544C206.781 342.584 208.022 344.477 209.497 346.147C209.655 346.327 209.928 346.339 210.101 346.173C210.277 346.005 210.289 345.724 210.128 345.541C208.709 343.934 207.515 342.113 206.597 340.15C206.493 339.929 206.236 339.838 206.024 339.947C205.81 340.056 205.721 340.324 205.825 340.544Z" fill="#2E417B"/>
<path d="M271.795 256.553C268.028 258.41 264.769 261.366 262.483 264.996C262.354 265.201 262.409 265.479 262.606 265.614C262.804 265.748 263.069 265.689 263.2 265.484C265.398 261.994 268.539 259.145 272.16 257.359C272.374 257.254 272.467 256.988 272.366 256.766C272.264 256.543 272.009 256.448 271.795 256.553Z" fill="#2E417B"/>
<path d="M192.796 154.99C194.202 157.263 195.757 159.438 197.445 161.489Z" fill="white"/>
<path d="M192.436 155.233C193.852 157.523 195.418 159.713 197.119 161.781C197.274 161.968 197.544 161.988 197.725 161.828C197.903 161.668 197.926 161.386 197.772 161.199C196.095 159.162 194.552 157.005 193.157 154.748C193.029 154.54 192.764 154.482 192.564 154.615C192.366 154.749 192.308 155.026 192.436 155.233Z" fill="#1F1F1F"/>
<path d="M209.391 144.572C209.706 148.195 210.024 151.82 210.34 155.443Z" fill="white"/>
<path d="M208.964 144.614C209.28 148.237 209.597 151.862 209.913 155.484C209.935 155.73 210.144 155.911 210.38 155.887C210.616 155.865 210.79 155.645 210.768 155.401C210.452 151.777 210.134 148.154 209.819 144.529C209.797 144.283 209.588 144.104 209.352 144.126C209.117 144.15 208.943 144.368 208.964 144.614Z" fill="#1F1F1F"/>
<path d="M242.345 157.706C243.774 153.557 245.204 149.407 246.635 145.258Z" fill="white"/>
<path d="M242.749 157.854C244.178 153.705 245.607 149.557 247.038 145.408C247.117 145.175 247.003 144.92 246.78 144.837C246.557 144.754 246.311 144.876 246.231 145.109C244.801 149.257 243.37 153.408 241.941 157.556C241.862 157.789 241.978 158.044 242.2 158.125C242.423 158.208 242.668 158.086 242.749 157.854Z" fill="#1F1F1F"/>
<path d="M250.165 157.443C252.029 154.416 253.892 151.389 255.754 148.36Z" fill="white"/>
<path d="M250.525 157.683C252.389 154.655 254.253 151.628 256.114 148.601C256.242 148.391 256.183 148.115 255.985 147.984C255.786 147.852 255.521 147.912 255.392 148.121C253.532 151.148 251.668 154.175 249.804 157.202C249.677 157.411 249.734 157.687 249.934 157.819C250.133 157.953 250.398 157.891 250.525 157.683Z" fill="#1F1F1F"/>
<path d="M260.045 161.106C261.467 159.677 262.89 158.247 264.311 156.819Z" fill="white"/>
<path d="M260.342 161.426C261.764 159.996 263.187 158.566 264.607 157.138C264.778 156.967 264.783 156.683 264.619 156.506C264.455 156.329 264.184 156.325 264.014 156.496C262.593 157.926 261.17 159.356 259.748 160.786C259.577 160.957 259.572 161.239 259.736 161.416C259.9 161.593 260.171 161.598 260.342 161.426Z" fill="#1F1F1F"/>
<path d="M266.781 174.135C269.646 173.861 272.482 173.258 275.221 172.339Z" fill="white"/>
<path d="M266.818 174.578C269.714 174.303 272.581 173.693 275.35 172.763C275.576 172.687 275.7 172.436 275.628 172.201C275.557 171.967 275.316 171.837 275.089 171.913C272.38 172.823 269.577 173.42 266.743 173.689C266.507 173.712 266.333 173.929 266.353 174.175C266.374 174.419 266.582 174.601 266.818 174.578Z" fill="#1F1F1F"/>
<path d="M229.738 145.74C229.656 147.642 229.574 149.542 229.493 151.445C229.482 151.691 229.666 151.899 229.902 151.909C230.138 151.919 230.339 151.728 230.349 151.481C230.431 149.579 230.513 147.679 230.594 145.777C230.605 145.53 230.422 145.322 230.185 145.312C229.949 145.302 229.748 145.494 229.738 145.74Z" fill="#1F1F1F"/>
<path d="M216.414 149.381C216.46 150.587 216.505 151.792 216.551 152.995Z" fill="white"/>
<path d="M215.986 149.401C216.031 150.606 216.077 151.811 216.123 153.014C216.131 153.261 216.331 153.452 216.568 153.443C216.804 153.432 216.989 153.223 216.979 152.976C216.933 151.773 216.889 150.568 216.843 149.363C216.833 149.115 216.635 148.925 216.398 148.936C216.16 148.945 215.976 149.154 215.986 149.401Z" fill="#1F1F1F"/>
<path d="M186.021 171.73C188.721 171.687 191.419 171.644 194.118 171.6Z" fill="white"/>
<path d="M186.027 172.177C188.726 172.134 191.424 172.091 194.124 172.046C194.36 172.042 194.55 171.839 194.547 171.594C194.544 171.347 194.35 171.149 194.113 171.153C191.414 171.197 188.716 171.242 186.016 171.285C185.779 171.287 185.59 171.492 185.593 171.737C185.596 171.984 185.79 172.182 186.027 172.177Z" fill="#1F1F1F"/>
<path d="M208.116 92.0088C204.507 93.1374 201.089 94.9232 198.06 97.2602L198.568 97.9774C201.517 95.7031 204.848 93.9637 208.359 92.8648L208.116 92.0088Z" fill="#1F1F1F"/>
<path d="M190.703 104.358C179.407 113.232 172.104 127.373 171.235 142.058L172.091 142.109C172.94 127.697 180.128 113.776 191.216 105.07L190.703 104.358Z" fill="#1F1F1F"/>
<path d="M185.888 119.751C183.508 122.375 181.714 125.568 180.683 129.011L181.502 129.273C182.494 125.962 184.221 122.886 186.511 120.362L185.888 119.751Z" fill="#1F1F1F"/>
<path d="M297.86 139.01C299.932 143.123 300.913 147.828 300.714 152.474C300.652 153.907 300.477 155.335 300.191 156.739L301.029 156.921C301.327 155.468 301.505 153.992 301.568 152.511C301.775 147.707 300.764 142.852 298.62 138.594L297.86 139.01Z" fill="#1F1F1F"/>
<path d="M230.787 83.8395C233.649 84.951 236.681 85.5763 239.732 85.7072C242.287 85.8169 244.856 85.5804 247.353 84.9921L247.166 84.1206C244.745 84.6925 242.252 84.9215 239.771 84.815C236.808 84.6879 233.865 84.0807 231.089 83.0033L230.787 83.8395Z" fill="#1F1F1F"/>
<path d="M532.177 299.494L535.82 292.199L538.955 299.713L547.645 299.55L547.531 299.576L540.208 306.659L545.761 316.425L534.964 311.026L525.165 315.727L529.624 306.313L523.12 299.763L532.177 299.494Z" fill="white"/>
<path d="M360.653 187.901L360.944 181.119C374.378 181.695 385.755 170.819 386.355 156.828L393.324 157.127C392.723 171.118 403.126 182.929 416.562 183.506L416.271 190.288C402.835 189.712 391.458 200.588 390.858 214.579L383.89 214.28C384.49 200.289 374.087 188.478 360.653 187.901Z" fill="#4B8BD9"/>
<path d="M372.332 185.004C381.322 185.39 388.935 178.113 389.336 168.751C388.935 178.113 395.896 186.015 404.887 186.401C395.896 186.015 388.283 193.293 387.881 202.656C388.283 193.293 381.322 185.39 372.332 185.004Z" fill="white"/>
<path d="M422.785 136.346L436.003 123.713C446.188 113.976 461.995 114.655 471.308 125.228C480.621 135.798 479.915 152.261 469.73 161.996L456.511 174.631L462.415 181.332L476.973 167.416C490.724 154.273 490.864 132.827 478.289 118.554C465.715 104.281 445.19 102.587 431.44 115.73L416.883 129.644L422.785 136.346Z" fill="white"/>
<path d="M454.675 158.87L451.216 150.357L445.489 157.453L447.005 148.328L438.514 151.086L444.525 144.249L435.964 141.793L444.561 139.411L438.65 132.522L447.102 135.353L445.718 126.216L451.342 133.361L454.924 124.879L455.934 134.07L463.346 128.934L459.422 137.253L468.308 137.095L460.697 141.9L468.238 146.77L459.355 146.535L463.156 154.886L455.819 149.687L454.675 158.87Z" fill="#FFC958"/>
<path d="M120.136 378.485C119.538 378.431 118.932 378.419 118.323 378.457C114.131 378.719 109.883 382.062 109.767 386.433C109.696 389.183 114.265 398.092 117.323 398.447C113.929 398.055 109.746 398.569 108.305 401.798C107.272 404.11 108.212 406.95 109.912 408.773C111.612 410.592 113.928 411.62 116.181 412.601C111.391 412.907 105.319 414.561 107.272 421.141C108.159 424.136 110.623 426.332 113.211 427.927C118.621 431.259 124.899 432.64 131.006 434.2C148.326 438.624 165.212 444.861 181.327 452.783C184.646 454.415 187.939 456.121 191.055 458.139C196.297 461.533 201.015 465.804 204.97 470.738C189.412 440.018 165.216 415.119 140.524 391.784C137.147 388.591 133.741 385.41 129.973 382.733C127.013 380.629 123.665 378.806 120.136 378.485Z" fill="#FFC958"/>
<path d="M116.341 398.754C120.494 400.734 126.787 403.786 132.832 407.272C133.038 407.391 133.299 407.313 133.414 407.097C133.53 406.882 133.456 406.609 133.248 406.491C127.169 402.985 120.86 399.925 116.702 397.941C116.487 397.839 116.232 397.937 116.133 398.162C116.033 398.386 116.128 398.651 116.341 398.754Z" fill="#1F1F1F"/>
<path d="M116.001 413.006C118.209 414.065 122.762 416.053 124.945 417.1C125.16 417.204 125.415 417.106 125.514 416.881C125.615 416.657 125.521 416.392 125.306 416.289C123.098 415.231 118.545 413.242 116.362 412.196C116.147 412.092 115.892 412.19 115.791 412.415C115.692 412.639 115.786 412.904 116.001 413.006Z" fill="#1F1F1F"/>
<path d="M199.288 461.243C191.798 453.104 182.043 444.19 173.263 437.589C173.07 437.445 172.802 437.488 172.663 437.69C172.524 437.889 172.567 438.168 172.759 438.312C181.487 444.874 191.22 453.766 198.667 461.862C198.83 462.039 199.102 462.045 199.273 461.874C199.445 461.704 199.45 461.42 199.288 461.243Z" fill="#1F1F1F"/>
<path d="M214.963 476.366L205.125 473.308L197.099 480.024L196.881 469.326L188.294 463.474L198.001 459.919L200.719 449.586L206.935 458.087L217.2 457.553L211.336 466.364L214.963 476.366Z" fill="white"/>
<path d="M160.677 430.702C163.002 432.157 165.283 433.685 167.516 435.284C167.711 435.423 167.979 435.372 168.113 435.169C168.247 434.965 168.199 434.686 168.004 434.547C165.756 432.938 163.46 431.399 161.12 429.936C160.918 429.81 160.654 429.879 160.531 430.09C160.409 430.301 160.474 430.575 160.677 430.702Z" fill="#1F1F1F"/>
<path d="M129.05 419.618C130.087 420.115 131.127 420.61 132.165 421.105C132.38 421.207 132.635 421.109 132.734 420.884C132.833 420.66 132.739 420.395 132.524 420.292C131.486 419.797 130.448 419.302 129.409 418.805C129.193 418.703 128.939 418.801 128.84 419.026C128.741 419.251 128.834 419.516 129.05 419.618Z" fill="#1F1F1F"/>
<path d="M126.919 383.297C125.383 381.729 123.287 380.79 121.136 380.696L120.845 380.689C118.593 380.676 116.359 381.596 114.722 383.215C114.55 383.385 114.543 383.667 114.705 383.845C114.869 384.024 115.14 384.03 115.312 383.861C116.779 382.406 118.814 381.569 120.837 381.582L121.098 381.588C123.031 381.669 124.939 382.525 126.317 383.936C126.484 384.108 126.756 384.105 126.923 383.928C127.088 383.753 127.087 383.47 126.919 383.297Z" fill="#1F1F1F"/>
<path d="M393.375 37.57C393.602 37.3205 393.829 37.0711 394.058 36.8217C397.179 33.4053 400.416 30.0618 404.065 27.2544C407.143 24.8874 411.287 21.8098 415.255 21.9301C420.477 22.0899 423.441 27.3853 420.669 31.9751C418.415 35.7076 414.449 38.0348 411.054 40.4794C413.075 39.0234 415.382 38.0194 417.683 37.1564C419.855 36.3433 421.938 35.124 424.294 35.2109C424.843 35.2308 425.394 35.3046 425.915 35.4896C427.376 36.0064 428.299 37.1937 428.359 38.8034C428.532 43.4481 423.182 48.2508 419.503 50.0272C422.505 48.5775 431.179 44.5003 432.442 49.9694C432.756 51.3273 432.454 52.7695 431.942 54.0632C430.406 57.9285 427.125 60.7158 423.847 63.1405C416.192 68.8025 407.881 73.4138 399.829 78.4384C382.448 89.2855 366.203 102.112 351.482 116.618C350.632 117.454 349.211 118.289 348.456 117.366C348.076 116.898 348.125 116.206 348.219 115.597C349.136 109.649 352.112 104.207 354.415 98.7513C364.135 75.7193 376.717 55.9512 393.375 37.57Z" fill="#FFC958"/>
<path d="M356.82 136.734L345.744 129.91L334.039 135.563L336.882 122.465L328.142 112.635L340.974 111.362L347.279 99.6335L352.367 111.946L365.005 114.526L355.315 123.41L356.82 136.734Z" fill="white"/>
<path d="M379.709 67.1521C377.505 69.6872 375.346 72.2636 373.236 74.8832C373.083 75.0733 373.106 75.3549 373.288 75.5129C373.468 75.6708 373.739 75.6449 373.893 75.4566C375.996 72.8457 378.147 70.2779 380.344 67.7515C380.503 67.567 380.49 67.2857 380.315 67.1209C380.14 66.9543 379.868 66.9695 379.709 67.1521Z" fill="#1F1F1F"/>
<path d="M387.492 69.0864C379.198 76.2226 370.625 85.426 364.399 93.366C364.25 93.5581 364.275 93.8381 364.459 93.9943C364.643 94.1488 364.912 94.121 365.063 93.9291C371.249 86.0374 379.797 76.8615 388.036 69.7748C388.22 69.6164 388.245 69.3351 388.096 69.1463C387.944 68.9557 387.674 68.9298 387.492 69.0864Z" fill="#1F1F1F"/>
<path d="M412.742 38.8084C411.09 40.1784 409.435 41.5482 407.781 42.9199C407.596 43.0729 407.565 43.354 407.712 43.5462C407.859 43.7403 408.129 43.7715 408.314 43.6168C409.968 42.2469 411.621 40.8752 413.275 39.5053C413.46 39.3523 413.493 39.0713 413.345 38.879C413.198 38.685 412.929 38.6538 412.742 38.8084Z" fill="#1F1F1F"/>
<path d="M383.299 64.1852C384.505 63.0678 385.71 61.9486 386.913 60.831C387.092 60.6653 387.108 60.3835 386.951 60.1998C386.792 60.016 386.522 60.0009 386.345 60.1649C385.14 61.2823 383.935 62.4015 382.73 63.519C382.553 63.683 382.536 63.9647 382.692 64.1502C382.851 64.334 383.122 64.3492 383.299 64.1852Z" fill="#1F1F1F"/>
<path d="M88.9658 367.695L97.5578 356.476L105.363 368.112L88.9658 367.695Z" fill="white"/>
<path d="M104.812 368.097L113.406 356.877L121.209 368.515L104.812 368.097Z" fill="white"/>
<path d="M120.662 368.499L129.252 357.28L137.057 368.915L120.662 368.499Z" fill="white"/>
<path d="M529.065 168.125C529.433 159.571 535.708 152.893 543.082 153.209L556.001 153.764L554.634 185.612L541.003 184.131C533.952 183.366 528.713 176.34 529.065 168.125Z" fill="#4B8BD9"/>
<path d="M529.195 177.184C529.563 168.63 535.838 161.952 543.212 162.269L556.131 162.823L554.764 194.671L541.133 193.191C534.082 192.425 528.843 185.4 529.195 177.184Z" fill="white"/>
<path d="M559.195 243.43C558.805 245.082 558.531 245.976 557.251 247.073C556.812 247.333 556.374 247.594 555.923 247.862C555.428 248.161 554.933 248.46 554.423 248.768C553.885 249.081 553.347 249.395 552.793 249.718C552.237 250.051 551.681 250.384 551.108 250.726C549.37 251.763 547.626 252.789 545.881 253.813C544.836 254.433 543.791 255.053 542.746 255.674C540.235 257.163 537.716 258.64 535.194 260.11C533.788 260.929 532.383 261.751 530.979 262.574C520.041 268.963 509.01 275.114 497.647 280.642C495.84 278.984 495.159 277.05 494.318 274.749C494.162 274.332 494.006 273.915 493.845 273.486C492.838 270.785 491.883 268.065 490.939 265.339C489.631 261.568 488.125 257.916 486.513 254.277C481.454 253.793 476.717 253.735 471.673 254.426C468.798 254.801 468.798 254.801 467.245 253.87C471.035 247.049 474.824 240.229 478.728 233.202C478.286 232.504 477.844 231.806 477.389 231.086C477.046 230.253 476.728 229.409 476.43 228.558C476.258 228.071 476.086 227.584 475.909 227.083C475.731 226.569 475.552 226.056 475.368 225.527C474.996 224.47 474.623 223.414 474.25 222.357C474.071 221.847 473.891 221.336 473.706 220.811C472.883 218.498 472.012 216.206 471.134 213.916C469.963 210.645 469.963 210.645 470.506 208.954C471.442 207.834 471.442 207.834 472.881 207.36C475.718 207.248 477.826 208.218 480.426 209.319C480.984 209.547 481.541 209.776 482.116 210.012C484.008 210.793 485.893 211.588 487.778 212.387C488.457 212.674 489.137 212.961 489.817 213.247C494.741 215.327 499.653 217.436 504.563 219.551C508.342 221.177 512.123 222.798 515.904 224.42C516.324 224.6 516.744 224.78 517.177 224.966C523.045 227.484 528.921 229.979 534.807 232.451C535.501 232.743 536.195 233.035 536.889 233.326C540.098 234.675 543.309 236.019 546.521 237.359C547.658 237.836 548.795 238.312 549.931 238.789C550.437 238.999 550.943 239.208 551.464 239.424C554.185 240.569 556.692 241.835 559.195 243.43Z" fill="white"/>
<path d="M554.725 244.685C553.716 246.502 552.801 246.949 551.06 247.996C550.459 248.36 549.858 248.724 549.239 249.099C548.576 249.496 547.913 249.892 547.25 250.288C546.564 250.7 545.878 251.114 545.192 251.527C543.391 252.611 541.588 253.689 539.783 254.767C538.735 255.393 537.689 256.021 536.642 256.65C524.149 264.157 511.517 271.332 498.542 277.898C497.205 276.7 496.575 275.66 495.939 273.953C495.762 273.484 495.584 273.015 495.401 272.532C495.213 272.026 495.025 271.519 494.831 270.996C494.42 269.914 494.008 268.832 493.596 267.751C493.38 267.186 493.165 266.621 492.943 266.039C491.811 263.109 490.623 260.204 489.432 257.3C489.212 256.762 488.992 256.225 488.766 255.671C487.547 252.699 486.296 249.746 485.003 246.809C487.662 246.308 490.238 246.187 492.93 246.194C497.917 246.174 502.901 246.07 507.887 245.942C508.27 245.932 508.654 245.922 509.049 245.912C511.357 245.853 513.665 245.793 515.972 245.732C517.633 245.689 519.293 245.646 520.953 245.604C523.352 245.542 525.752 245.48 528.151 245.417C530.638 245.352 533.125 245.288 535.612 245.224C541.984 245.061 548.355 244.895 554.725 244.685Z" fill="#2E417B"/>
<path d="M549.811 241.08C548.07 241.569 546.956 241.387 545.171 241.141C544.499 241.051 543.826 240.96 543.134 240.866C542.767 240.816 542.401 240.765 542.023 240.713C539.982 240.43 537.939 240.159 535.896 239.886C535.447 239.826 534.998 239.766 534.535 239.704C528.522 238.901 522.502 238.154 516.482 237.403C515.297 237.254 514.111 237.106 512.925 236.958C507.364 236.263 501.801 235.575 496.237 234.905C495.753 234.846 495.269 234.788 494.771 234.727C492.52 234.455 490.27 234.185 488.019 233.919C487.231 233.824 486.442 233.729 485.654 233.634C484.64 233.513 484.64 233.513 483.605 233.39C480.97 233.003 480.97 233.003 479.747 232.501C479.212 231.35 479.212 231.35 478.808 229.805C477.978 226.901 476.994 224.129 475.892 221.33C474.455 217.653 473.165 213.955 472.037 210.159C472.677 209.569 472.677 209.569 473.329 208.966C476.2 209.635 478.853 210.689 481.574 211.852C482.126 212.087 482.126 212.087 482.688 212.326C483.898 212.841 485.106 213.359 486.314 213.877C487.173 214.243 488.031 214.609 488.89 214.975C490.707 215.749 492.522 216.524 494.337 217.301C497.158 218.507 499.98 219.71 502.802 220.913C503.739 221.312 504.677 221.712 505.614 222.111C506.075 222.307 506.536 222.504 507.011 222.706C508.4 223.298 509.788 223.89 511.176 224.483C518.102 227.436 525.033 230.374 531.974 233.289C532.397 233.467 532.82 233.645 533.256 233.828C534.429 234.322 535.603 234.815 536.777 235.307C537.299 235.526 537.299 235.526 537.832 235.75C540.565 236.892 543.314 237.99 546.071 239.067C547.395 239.64 548.589 240.304 549.811 241.08Z" fill="#2E417B"/>
<path d="M555.073 242.926C555.405 243.45 555.405 243.45 555.743 243.984C552.992 244.057 550.24 244.128 547.489 244.198C546.874 244.214 546.874 244.214 546.247 244.229C541.578 244.347 536.91 244.454 532.24 244.48C527.76 244.507 523.287 244.655 518.809 244.817C514.492 244.97 510.176 245.069 505.857 245.144C499.837 245.25 493.819 245.414 487.8 245.578C486.764 245.604 485.727 245.602 484.691 245.576C482.953 245.688 481.832 246.117 480.258 246.882C479.74 247.127 479.222 247.373 478.689 247.625C477.891 248.014 477.891 248.014 477.078 248.41C476.013 248.925 474.947 249.437 473.88 249.944C473.411 250.172 472.942 250.4 472.458 250.636C472.082 250.777 471.706 250.919 471.319 251.065C471.007 250.878 470.696 250.691 470.375 250.499C473.533 244.815 476.691 239.132 479.944 233.276C481.616 233.629 483.287 233.983 485.009 234.347C486.517 234.57 488.018 234.777 489.531 234.958C489.959 235.011 490.387 235.065 490.828 235.12C492.251 235.296 493.674 235.47 495.097 235.643C496.118 235.769 497.138 235.895 498.159 236.021C499.809 236.226 501.459 236.43 503.109 236.633C507.611 237.187 512.112 237.75 516.613 238.317C518.704 238.579 520.795 238.842 522.886 239.105C524.234 239.274 525.581 239.444 526.928 239.613C528.856 239.856 530.783 240.098 532.711 240.339C533.33 240.416 533.949 240.494 534.586 240.574C537.889 240.985 541.192 241.367 544.501 241.715C545.186 241.788 545.872 241.861 546.578 241.936C547.896 242.074 549.214 242.209 550.533 242.339C551.12 242.4 551.706 242.462 552.31 242.526C553.088 242.604 553.088 242.604 553.882 242.683C554.275 242.763 554.668 242.843 555.073 242.926Z" fill="#2E417B"/>
<ellipse cx="28.9928" cy="29.3966" rx="28.9928" ry="29.3966" transform="matrix(0.999998 -0.00177716 -0.00170663 0.999999 55.7539 188.928)" fill="#FFC958"/>
<path d="M106.267 187.107C113.221 191.743 117.754 198.25 119.904 206.642C120.084 208.59 120.1 210.521 120.084 212.478C120.078 213.279 120.078 213.279 120.072 214.096C119.905 222.539 116.808 228.867 111.373 235.05C112.171 236.089 112.969 237.129 113.792 238.2C114.142 238.056 114.492 237.913 114.853 237.765C116.216 237.565 116.216 237.565 117.578 238.351C117.927 238.715 118.277 239.079 118.637 239.454C118.636 240.078 118.634 240.703 118.633 241.346C117.634 240.932 116.635 240.517 115.606 240.09C115.959 240.504 115.959 240.504 116.319 240.927C119.584 244.783 122.758 248.712 125.885 252.69C126.241 253.123 126.597 253.555 126.964 254C128.436 255.897 128.902 256.958 128.979 259.428C128.156 261.94 127.504 262.799 125.26 264.049C122.909 264.104 121.947 263.722 120.191 262.096C118.419 260.066 116.99 257.95 115.542 255.666C112.102 250.34 108.432 245.215 104.7 240.109C104.136 240.408 103.572 240.707 102.992 241.014C96.3379 244.441 89.3355 244.676 82.2769 242.673C74.9236 240.003 68.6171 235.122 64.8137 227.965C61.366 220.369 60.0269 211.06 62.7288 202.879C64.6645 198.307 67.2849 194.31 70.8531 190.956C71.1496 190.652 71.4461 190.348 71.7516 190.035C81.3572 180.649 95.3751 180.538 106.267 187.107Z" fill="#2E417B"/>
<path d="M106.267 187.107C113.221 191.743 117.754 198.25 119.904 206.642C120.084 208.59 120.1 210.521 120.084 212.478C120.078 213.279 120.078 213.279 120.072 214.096C119.905 222.539 116.808 228.867 111.373 235.05C112.171 236.089 112.969 237.129 113.792 238.2C114.142 238.056 114.492 237.913 114.853 237.765C116.216 237.565 116.216 237.565 117.578 238.351C117.927 238.715 118.277 239.079 118.637 239.454C118.636 240.078 118.634 240.703 118.633 241.346C117.634 240.932 116.635 240.517 115.606 240.09C115.959 240.504 115.959 240.504 116.319 240.927C119.584 244.783 122.758 248.712 125.885 252.69C126.241 253.123 126.597 253.555 126.964 254C128.436 255.897 128.902 256.958 128.979 259.428C128.156 261.94 127.504 262.799 125.26 264.049C122.909 264.104 121.947 263.722 120.191 262.096C118.419 260.066 116.99 257.95 115.542 255.666C112.102 250.34 108.432 245.215 104.7 240.109C104.136 240.408 103.572 240.707 102.992 241.014C96.3379 244.441 89.3355 244.676 82.2769 242.673C74.9236 240.003 68.6171 235.122 64.8137 227.965C61.366 220.369 60.0269 211.06 62.7288 202.879C64.6645 198.307 67.2849 194.31 70.8531 190.956C71.1496 190.652 71.4461 190.348 71.7516 190.035C81.3572 180.649 95.3751 180.538 106.267 187.107ZM72.5094 196.75C69.3675 200.613 66.9074 205.408 66.5783 210.523C66.5402 210.919 66.502 211.315 66.4627 211.723C66.0813 218.383 68.506 225.03 72.604 230.071C76.8994 234.835 82.138 237.912 88.4427 238.396C96.2595 238.556 102.565 236.363 108.335 230.735C110.934 227.845 112.548 224.878 113.821 221.165C114.084 220.396 114.348 219.628 114.62 218.837C116.127 211.805 114.251 205.04 110.943 198.968C107.089 193.804 102.124 189.506 95.6994 188.388C86.302 187.806 79.189 189.47 72.5094 196.75Z" fill="white"/>
<path d="M89.9278 190.618C94.7155 190.679 98.916 192.619 102.643 195.643C103.732 196.938 103.732 196.938 104.457 198.164C104.265 199.584 104.265 199.584 103.846 200.688C102.002 200.321 100.93 199.77 99.4951 198.527C97.0659 196.641 94.688 196.151 91.7369 195.662C91.1248 195.533 90.5127 195.404 89.882 195.271C89.4947 195.194 89.1074 195.117 88.7084 195.037C88.6353 193.539 88.6353 193.539 88.7138 191.882C89.1144 191.465 89.515 191.048 89.9278 190.618Z" fill="white"/>
<path d="M106.873 202.576C108.047 202.613 108.047 202.613 109.296 203.202C110.452 205.732 110.653 207.455 109.89 210.142C109.29 210.143 108.69 210.144 108.072 210.145C105.626 206.124 105.626 206.124 105.772 204.234C106.266 203.208 106.266 203.208 106.873 202.576Z" fill="white"/>
<path d="M102.884 238.85C103.483 239.058 104.083 239.265 104.7 239.478C103.08 241.66 101.156 242.087 98.6359 242.644C97.2897 242.36 97.2897 242.36 96.2134 242.017C96.5933 241.841 96.9731 241.666 97.3645 241.485C97.8601 241.256 98.3557 241.026 98.8663 240.79C99.3587 240.562 99.8512 240.334 100.359 240.1C101.208 239.701 102.051 239.285 102.884 238.85Z" fill="white"/>
<path d="M111.736 243.6L129.081 248.494C142.448 252.263 150.402 266.639 146.846 280.602C143.293 294.563 129.576 302.826 116.211 299.056L98.8639 294.162L96.6107 303.013L115.716 308.401C133.761 313.492 151.21 302.036 156.008 283.185C160.807 264.335 151.138 245.229 133.094 240.139L113.99 234.751L111.736 243.6Z" fill="#4B8BD9"/>
</svg>
